<svg width="211" height="220" viewBox="0 0 211 220" fill="none" xmlns="http://www.w3.org/2000/svg">
<path d="M155.799 219.56L43.4905 217.9C34.2535 217.763 26.7846 211.564 26.6619 203.922C26.1063 169.976 25.298 51.2668 26.3516 18.9736C26.532 13.4242 31.9732 9.00779 38.6844 8.94285C64.786 8.70471 127.54 8.62533 156.607 12.7964C162.727 13.6768 167.251 18.0282 167.374 23.1591C168.052 51.606 169.683 177.452 168.326 209.724C168.095 215.295 162.532 219.661 155.799 219.56Z" fill="#F35815"/>
<path d="M153.908 213.758L43.4831 212.127C37.8976 212.047 33.4018 208.396 33.3874 203.936L33.2647 23.7797C33.2503 19.3561 37.7533 15.7984 43.2882 15.8633L152.732 17.1839C156.686 17.2272 159.897 19.7963 159.941 22.9642L161.875 207.429C161.932 210.958 158.332 213.823 153.908 213.758Z" fill="#F3D4C7"/>
<path d="M41.4625 106.313C40.712 106.313 40.0986 105.7 40.0986 104.949V93.6341C40.0986 90.7404 42.4584 88.3806 45.3521 88.3806H53.1819C53.9324 88.3806 54.5458 88.994 54.5458 89.7445C54.5458 90.495 53.9324 91.1084 53.1819 91.1084H45.3521C43.9594 91.1084 42.8264 92.2414 42.8264 93.6341V104.949C42.8264 105.707 42.2202 106.313 41.4625 106.313Z" fill="white"/>
<path d="M117.393 106.313C116.642 106.313 116.029 105.7 116.029 104.949V93.6341C116.029 92.2414 114.896 91.1084 113.503 91.1084H105.673C104.923 91.1084 104.31 90.495 104.31 89.7445C104.31 88.994 104.923 88.3806 105.673 88.3806H113.503C116.397 88.3806 118.757 90.7404 118.757 93.6341V104.949C118.757 105.707 118.151 106.313 117.393 106.313Z" fill="white"/>
<path d="M51.0462 168.562H43.2164C40.3226 168.562 37.9629 166.202 37.9629 163.308V151.993C37.9629 151.242 38.5763 150.629 39.3268 150.629C40.0773 150.629 40.6907 151.242 40.6907 151.993V163.308C40.6907 164.701 41.8236 165.834 43.2164 165.834H51.0462C51.7967 165.834 52.4101 166.447 52.4101 167.198C52.4101 167.948 51.7967 168.562 51.0462 168.562Z" fill="white"/>
<path d="M111.367 168.562H103.538C102.787 168.562 102.174 167.948 102.174 167.198C102.174 166.447 102.787 165.834 103.538 165.834H111.367C112.76 165.834 113.893 164.701 113.893 163.308V151.993C113.893 151.242 114.507 150.629 115.257 150.629C116.008 150.629 116.621 151.242 116.621 151.993V163.308C116.614 166.202 114.261 168.562 111.367 168.562Z" fill="white"/>
<g opacity="0.3">
<path d="M59.9733 19.8756C59.6342 20.2148 59.0857 20.222 58.7393 19.8829C58.0754 19.2262 57.3682 18.5911 56.6466 17.9922C56.2786 17.6891 56.2281 17.1479 56.5239 16.7798C56.5239 16.7726 56.5311 16.7726 56.5311 16.7654C56.8414 16.3974 57.3899 16.3468 57.7579 16.6499C58.5156 17.2778 59.2589 17.9489 59.9589 18.6416C60.2764 18.9592 60.3053 19.4571 60.0311 19.8035C60.0166 19.8323 59.995 19.854 59.9733 19.8756ZM52.9374 15.3149C52.1436 14.817 51.3137 14.3551 50.4838 13.9294C50.0581 13.7129 49.8849 13.1861 50.1014 12.7603C50.3251 12.3345 50.8446 12.1614 51.2704 12.3778C52.1436 12.8253 53.0168 13.316 53.8539 13.8355C54.2652 14.0881 54.3879 14.6293 54.1353 15.0335C54.1137 15.0623 54.0992 15.0912 54.0776 15.1201C53.8034 15.4592 53.3126 15.553 52.9374 15.3149ZM46.2695 12.1397C45.3819 11.8366 44.4798 11.5624 43.5705 11.3387C43.1015 11.2232 42.82 10.7469 42.9355 10.2851C43.051 9.82325 43.5273 9.53459 43.9891 9.65005C44.9417 9.88819 45.9014 10.1769 46.8323 10.4944C47.287 10.6531 47.5251 11.1438 47.3736 11.5985C47.3375 11.6923 47.2942 11.7789 47.2292 11.8583C47.0128 12.1397 46.6303 12.2624 46.2695 12.1397ZM39.0675 10.5377C38.1366 10.4366 37.1913 10.3789 36.2532 10.3573C35.7697 10.35 35.3944 9.95314 35.4016 9.46965C35.4088 8.98615 35.813 8.6109 36.2892 8.61811C37.2707 8.63976 38.2737 8.70471 39.2479 8.80574C39.7242 8.85626 40.0706 9.28202 40.0201 9.76552C39.9985 9.93871 39.9335 10.0903 39.8325 10.2129C39.6593 10.4366 39.3706 10.5665 39.0675 10.5377ZM31.678 10.581C30.7471 10.6892 29.8162 10.8408 28.8925 11.0284C28.4234 11.1222 27.9616 10.8191 27.8677 10.35C27.7739 9.88098 28.077 9.41913 28.5461 9.32532C29.5131 9.13048 30.4945 8.97172 31.4759 8.85626C31.9522 8.79852 32.3852 9.13769 32.4429 9.62119C32.4718 9.85933 32.3996 10.0903 32.2553 10.2634C32.1182 10.4294 31.9161 10.5521 31.678 10.581ZM24.4833 12.2552C23.6029 12.5655 22.7225 12.9191 21.8709 13.3088C21.4307 13.5036 20.9184 13.316 20.7163 12.8758C20.5215 12.4356 20.7091 11.9232 21.1493 11.7212C22.0441 11.317 22.975 10.9418 23.8987 10.6098C24.3534 10.4511 24.8513 10.6892 25.0101 11.1366C25.1111 11.4325 25.0534 11.7428 24.8657 11.9737C24.7791 12.0964 24.642 12.1974 24.4833 12.2552ZM2.46613 35.8888C1.99707 35.7733 1.71563 35.297 1.83831 34.8352C2.07645 33.8826 2.3651 32.9228 2.68984 31.9919C2.8486 31.5373 3.34653 31.2991 3.79394 31.4579C4.24857 31.6167 4.48672 32.1074 4.32796 32.562C4.01765 33.4496 3.75065 34.3589 3.51972 35.2609C3.49086 35.3836 3.43312 35.4991 3.35374 35.5929C3.15169 35.8527 2.8053 35.9754 2.46613 35.8888ZM17.8514 15.4809C17.0648 15.9788 16.2855 16.52 15.5422 17.0901C15.1597 17.3788 14.6113 17.3066 14.3226 16.9242C14.034 16.5417 14.1061 16.0005 14.4886 15.7046C15.2752 15.1056 16.0906 14.5355 16.9205 14.0087C17.3246 13.749 17.8659 13.8716 18.1184 14.2757C18.3205 14.6005 18.2916 15.0046 18.0607 15.286C18.003 15.3582 17.9308 15.4231 17.8514 15.4809ZM4.95578 28.7301C4.53001 28.5136 4.35682 27.9868 4.58053 27.5611C5.02794 26.6879 5.51866 25.8147 6.04545 24.9776C6.29802 24.5663 6.83925 24.4436 7.24337 24.7034C7.64748 24.956 7.77738 25.4972 7.51759 25.9013C7.01966 26.6951 6.55059 27.5178 6.12483 28.3549C6.09596 28.4054 6.0671 28.4559 6.03102 28.4992C5.77845 28.8167 5.33103 28.925 4.95578 28.7301ZM12.1 20.1066C11.4433 20.7705 10.801 21.4705 10.2021 22.1921C9.89177 22.5601 9.34333 22.6106 8.97529 22.3003C8.61448 21.9973 8.55675 21.456 8.85262 21.088C8.85983 21.0808 8.85983 21.0808 8.86705 21.0736C9.49487 20.3158 10.1732 19.5798 10.8588 18.8798C11.1979 18.5406 11.7464 18.5334 12.0928 18.8726C12.4103 19.1901 12.4319 19.688 12.1577 20.0344C12.1433 20.0633 12.1216 20.0849 12.1 20.1066Z" fill="#F1F2F2" stroke="#231F20" stroke-width="0.115783" stroke-miterlimit="10"/>
<path d="M2.40079 41.6258C2.50904 41.4887 2.57399 41.3227 2.58842 41.1423C2.61728 40.6949 2.66058 40.2402 2.70388 39.7928C2.75439 39.3165 2.40801 38.8835 1.93173 38.833C1.45545 38.7825 1.02247 39.1289 0.971951 39.6052C0.921436 40.0742 0.87814 40.5577 0.849274 41.0268C0.820409 41.5031 1.18123 41.9216 1.65751 41.9505C1.96059 41.9722 2.2276 41.8423 2.40079 41.6258Z" fill="#F1F2F2" stroke="#231F20" stroke-width="0.115783" stroke-miterlimit="10"/>
</g>
<g opacity="0.3">
<path d="M11.1177 66.681C11.3775 66.3563 11.3703 65.8728 11.0816 65.5552C10.7786 65.2233 10.4827 64.8769 10.194 64.5305C9.88373 64.1625 9.33528 64.112 8.96725 64.4223C8.59921 64.7326 8.5487 65.281 8.859 65.6491C9.16209 66.0099 9.47961 66.3779 9.79713 66.7243C10.1219 67.0779 10.6703 67.1068 11.0239 66.782C11.0528 66.7459 11.0889 66.7171 11.1177 66.681Z" fill="#F1F2F2" stroke="#231F20" stroke-width="0.115783" stroke-miterlimit="10"/>
<path d="M61.5529 66.3923C61.2354 66.7532 60.6869 66.7892 60.3261 66.4717C59.9653 66.1542 59.9292 65.6058 60.2467 65.2449C60.8529 64.5594 61.4374 63.8378 61.9931 63.0872C62.2745 62.7048 62.823 62.6254 63.2127 62.9068C63.5951 63.1955 63.6745 63.7367 63.3931 64.1264C63.1549 64.4511 62.9096 64.7687 62.657 65.079C62.3034 65.5264 61.9282 65.9666 61.5529 66.3923ZM64.7786 60.4821C64.3601 60.2512 64.2085 59.7172 64.4394 59.2987C64.8869 58.4904 65.3054 57.6533 65.6807 56.8162C65.8755 56.376 66.3951 56.1812 66.8281 56.376C67.2683 56.5709 67.4631 57.0904 67.2683 57.5234C66.8714 58.4038 66.4312 59.2842 65.9621 60.1358C65.9404 60.1791 65.9116 60.2224 65.8827 60.2584C65.6229 60.5904 65.1539 60.6914 64.7786 60.4821ZM58.1829 69.7263C57.4468 70.3541 56.6819 70.9675 55.8953 71.5376C55.5056 71.819 54.9644 71.7325 54.6829 71.3428C54.4015 70.9531 54.4881 70.4119 54.8778 70.1304C55.6283 69.5892 56.3571 69.0119 57.0499 68.4129C57.4107 68.1026 57.9664 68.1387 58.2767 68.5067C58.5509 68.8315 58.5509 69.2933 58.2983 69.6181C58.2622 69.6469 58.2262 69.6902 58.1829 69.7263ZM67.8239 53.6699C67.3621 53.5328 67.0951 53.0493 67.2322 52.5947C67.492 51.707 67.7157 50.805 67.8961 49.903C67.9899 49.4339 68.4517 49.1236 68.9208 49.2246C69.3899 49.3184 69.7002 49.7803 69.5991 50.2493C69.4043 51.2019 69.1734 52.1545 68.8992 53.0854C68.8631 53.2008 68.8126 53.3019 68.7476 53.3885C68.5311 53.641 68.1703 53.7709 67.8239 53.6699ZM51.8685 74.0345C51.017 74.4891 50.1294 74.9149 49.2346 75.2973C48.7944 75.485 48.282 75.2829 48.0944 74.8427C47.9068 74.4025 48.1088 73.8901 48.549 73.7025C49.3933 73.3417 50.2376 72.9376 51.0459 72.5046C51.4716 72.2809 51.9984 72.4397 52.2221 72.8654C52.3881 73.1829 52.3448 73.551 52.1355 73.818C52.0706 73.9046 51.9768 73.9767 51.8685 74.0345ZM44.7676 76.8633C43.8295 77.1231 42.8769 77.3396 41.9244 77.52C41.4553 77.6066 41.0007 77.2963 40.9069 76.8272C40.8203 76.3509 41.1306 75.8963 41.5997 75.8097C42.5017 75.6437 43.411 75.4272 44.2986 75.1891C44.7604 75.0592 45.2439 75.3334 45.3666 75.7953C45.446 76.0767 45.3738 76.3581 45.2078 76.5674C45.0996 76.7045 44.948 76.8128 44.7676 76.8633ZM37.2121 78.0756C36.2451 78.1262 35.2637 78.1334 34.2967 78.0973C33.8132 78.0829 33.4379 77.6787 33.4596 77.1952C33.474 76.7117 33.8781 76.3365 34.3616 76.3581C35.2781 76.387 36.2162 76.3798 37.1327 76.3365C37.6162 76.3148 38.0203 76.6829 38.042 77.1664C38.0564 77.3901 37.9843 77.5921 37.8544 77.7509C37.7028 77.9313 37.4719 78.0612 37.2121 78.0756ZM29.5772 77.6066C28.6246 77.4406 27.6576 77.2313 26.7267 76.986C26.2649 76.8633 25.9834 76.387 26.1061 75.9252C26.2288 75.4633 26.7051 75.1819 27.1669 75.3046C28.0545 75.5355 28.971 75.7375 29.8803 75.8891C30.3566 75.9685 30.6741 76.4231 30.5875 76.8922C30.5586 77.0437 30.5009 77.1736 30.4071 77.2891C30.2122 77.5344 29.9019 77.6643 29.5772 77.6066ZM22.2237 75.4705C21.3289 75.1025 20.4413 74.684 19.5753 74.2365C19.1495 74.0128 18.9836 73.4932 19.2001 73.0603C19.4238 72.6345 19.9433 72.4685 20.3691 72.685C21.1846 73.1108 22.0361 73.5005 22.8804 73.8541C23.3206 74.0417 23.5371 74.5468 23.3495 74.9943C23.3206 75.0736 23.2773 75.1386 23.2268 75.2035C23.0031 75.5066 22.5917 75.6221 22.2237 75.4705ZM15.5269 71.783C14.9424 71.3716 14.3651 70.9387 13.8094 70.4912C13.6074 70.3325 13.4125 70.1665 13.2105 70.0005C12.8424 69.6902 12.7847 69.1418 13.1022 68.7737C13.4125 68.4057 13.961 68.3552 14.329 68.6655C14.5166 68.8243 14.7043 68.9758 14.8991 69.1273C15.4259 69.5531 15.9743 69.9644 16.53 70.3541C16.9197 70.6283 17.0207 71.1768 16.7393 71.5665C16.7321 71.5809 16.7176 71.5953 16.7104 71.6098C16.4217 71.9706 15.9094 72.0428 15.5269 71.783Z" fill="#F1F2F2" stroke="#231F20" stroke-width="0.115783" stroke-miterlimit="10"/>
<path d="M70.0248 46.0061C70.1331 45.869 70.2052 45.703 70.2124 45.5154C70.2413 45.0463 70.263 44.5628 70.2702 44.0865C70.2774 43.6031 69.8949 43.2062 69.4186 43.1989C68.9351 43.1917 68.5382 43.567 68.531 44.0505C68.5238 44.5051 68.5022 44.9597 68.4733 45.4071C68.4444 45.8834 68.8052 46.302 69.2887 46.3308C69.5846 46.3525 69.8588 46.2226 70.0248 46.0061Z" fill="#F1F2F2" stroke="#231F20" stroke-width="0.115783" stroke-miterlimit="10"/>
</g>
<path d="M60.1606 34.8207C60.1245 34.6475 59.9874 34.5249 59.8142 34.5032L54.8999 33.9115C53.9112 31.8259 52.5834 29.8775 50.9309 28.1672L52.1143 23.3611C52.1576 23.1952 52.0855 23.0148 51.9411 22.9209L46.9546 19.7024C46.8103 19.6086 46.6227 19.6159 46.4856 19.7241L42.596 22.7766C40.3589 21.9756 38.0352 21.5643 35.726 21.5282L33.1642 17.2922C33.0776 17.1406 32.8972 17.0685 32.7312 17.1046L26.9292 18.353C26.7632 18.3891 26.6334 18.5262 26.6117 18.6994L26.02 23.6137C23.9344 24.6024 21.986 25.9302 20.2757 27.5827L15.4696 26.3992C15.3037 26.3559 15.1232 26.4281 15.0294 26.5724L11.7965 31.5734C11.7027 31.7177 11.7099 31.9053 11.8182 32.0424L14.8707 35.9321C14.0697 38.1691 13.6583 40.4928 13.6222 42.802L9.38624 45.3638C9.23469 45.4504 9.16253 45.6308 9.19861 45.7968L10.447 51.5988C10.4831 51.7648 10.6202 51.8947 10.7934 51.9163L15.7078 52.508C16.6964 54.5936 18.0242 56.542 19.6768 58.2523L18.5005 63.0656C18.4572 63.2316 18.5294 63.412 18.6737 63.5058L23.6602 66.7243C23.8045 66.8181 23.9922 66.8109 24.1293 66.7026L28.0189 63.6501C30.256 64.4511 32.5796 64.8625 34.8889 64.8985L37.4507 69.1346C37.5373 69.2861 37.7177 69.3583 37.8837 69.3222L43.6856 68.0737C43.8516 68.0377 43.9815 67.9006 44.0031 67.7274L44.5949 62.813C46.6804 61.8244 48.6288 60.4966 50.3391 58.844L55.1452 60.0275C55.3112 60.0708 55.4916 59.9986 55.5854 59.8543L58.8039 54.8678C58.8977 54.7235 58.8905 54.5358 58.7823 54.3987L55.7297 50.5091C56.5308 48.272 56.9421 45.9484 56.9782 43.6391L61.2142 41.0773C61.3657 40.9907 61.4379 40.8103 61.4018 40.6443L60.1606 34.8207Z" fill="#F1F2F2" stroke="#231F20" stroke-width="0.115783" stroke-miterlimit="10"/>
<path d="M39.378 47.5793C36.975 49.8236 33.1864 49.6937 30.9421 47.2834C29.8524 46.1143 29.2895 44.5989 29.34 43.0041C29.3978 41.4093 30.0689 39.9371 31.2379 38.8475C33.641 36.6032 37.4296 36.7331 39.6739 39.1433C41.7161 41.3299 41.7883 44.6639 39.977 46.937C39.7893 47.1607 39.5945 47.3772 39.378 47.5793ZM30.7328 43.0546C30.6895 44.2742 31.1225 45.4432 31.9596 46.3381C33.6771 48.1854 36.5781 48.2865 38.4254 46.5618C40.2728 44.8443 40.3739 41.9433 38.6492 40.0959C36.9317 38.2485 34.0307 38.1475 32.1833 39.8722C32.0173 40.0309 31.8658 40.1969 31.7214 40.3701C31.1153 41.1278 30.7689 42.0588 30.7328 43.0546Z" fill="#F1F2F2" stroke="#231F20" stroke-width="0.115783" stroke-miterlimit="10"/>
<path d="M46.6299 52.407C46.9402 52.0173 47.2361 51.606 47.5103 51.1802C47.5969 51.0431 47.6835 50.9132 47.7629 50.7761C48.167 50.105 48.5206 49.3978 48.8092 48.6689C48.8165 48.6617 48.8165 48.6473 48.8237 48.6401C48.8381 48.6112 48.8453 48.5823 48.8598 48.5535C48.8814 48.4957 48.9031 48.4452 48.9247 48.3875C48.9824 48.2432 48.9319 48.0844 48.8165 47.9906C48.7876 47.969 48.7587 47.9473 48.7226 47.9401C48.5422 47.8751 48.3402 47.9617 48.2752 48.1421C47.9288 49.0658 47.4742 49.9607 46.933 50.7978C44.2485 54.9616 39.7094 57.2203 35.0909 57.1915C32.5219 57.177 29.924 56.4554 27.6148 54.9616C27.2107 54.7018 26.821 54.4204 26.4457 54.1245C23.9416 52.1256 22.2169 49.3401 21.5314 46.1649C20.7448 42.5134 21.4231 38.7753 23.4509 35.6434C27.6292 29.1631 36.2961 27.3013 42.7691 31.4796C43.166 31.7393 43.5557 32.0136 43.9238 32.3094C45.5186 33.5867 46.8247 35.196 47.7268 37.0362C47.7484 37.0867 47.7845 37.1228 47.8206 37.1516C47.9216 37.231 48.066 37.2527 48.1886 37.1949C48.3618 37.1083 48.434 36.899 48.3474 36.7259C47.3948 34.7991 46.0309 33.1032 44.3567 31.761C43.9671 31.4507 43.5629 31.162 43.1444 30.8878C36.3466 26.5003 27.2467 28.4631 22.8592 35.2609C20.7304 38.5516 20.0159 42.4773 20.8458 46.3092C21.5675 49.6431 23.3788 52.5658 26.0055 54.6657C26.3952 54.976 26.8065 55.2719 27.2323 55.5461C30.523 57.675 34.4487 58.3894 38.2806 57.5595C41.6073 56.8523 44.5299 55.041 46.6299 52.407Z" fill="#F1F2F2" stroke="#231F20" stroke-width="0.115783" stroke-miterlimit="10"/>
<g opacity="0.3">
<path d="M96.4737 10.9201C96.618 10.7397 96.6324 10.4799 96.4953 10.2779C96.2355 9.90262 95.9541 9.53459 95.6727 9.17377C95.485 8.94285 95.1531 8.89955 94.9149 9.08717C94.684 9.26758 94.6407 9.60675 94.8284 9.84489C95.0954 10.1841 95.3624 10.5377 95.6149 10.8985C95.7881 11.1438 96.1201 11.2016 96.3654 11.0284C96.4087 10.9995 96.4448 10.9634 96.4737 10.9201Z" fill="#F1F2F2" stroke="#231F20" stroke-width="0.115783" stroke-miterlimit="10"/>
<path d="M93.7677 7.80988C93.5584 8.01916 93.2192 8.02638 93.01 7.8171C92.476 7.29031 91.9059 6.79237 91.3213 6.32331C91.1987 6.22228 91.076 6.12847 90.9461 6.02744C90.708 5.84703 90.6647 5.50786 90.8451 5.27694C91.0255 5.06045 91.3646 4.9955 91.5956 5.17591C91.7255 5.27694 91.8554 5.37797 91.9852 5.479C92.5986 5.96971 93.1976 6.4965 93.7533 7.04495C93.9553 7.23979 93.9697 7.55009 93.7966 7.76658C93.7893 7.78102 93.7821 7.79545 93.7677 7.80988ZM88.6802 4.50479C87.8936 4.04294 87.0781 3.63161 86.2482 3.27079C85.974 3.15533 85.8513 2.83781 85.9668 2.56359C86.0823 2.28936 86.3998 2.16669 86.674 2.28215C87.5472 2.6574 88.4059 3.0976 89.2214 3.57388C89.474 3.72542 89.5606 4.05016 89.4162 4.30995C89.4018 4.33159 89.3874 4.35324 89.3729 4.37489C89.207 4.58417 88.9111 4.6419 88.6802 4.50479ZM83.6792 2.34709C82.806 2.09452 81.9112 1.89246 81.0164 1.74814C80.7205 1.69762 80.5257 1.4234 80.569 1.13475C80.6195 0.838874 80.8937 0.644033 81.1824 0.687331C82.1205 0.838875 83.0586 1.04815 83.9751 1.31515C84.2565 1.40175 84.4225 1.69762 84.3431 1.97906C84.3215 2.05122 84.2926 2.10895 84.2493 2.16669C84.1194 2.33266 83.8957 2.41204 83.6792 2.34709ZM78.303 1.48113C77.3938 1.44505 76.4773 1.47391 75.5752 1.55329C75.2794 1.58216 75.0196 1.35845 74.9907 1.06258C74.9618 0.76671 75.1856 0.506921 75.4814 0.478056C76.4268 0.398676 77.3865 0.36981 78.3391 0.405892C78.635 0.413108 78.8659 0.665682 78.8587 0.961553C78.8515 1.08423 78.8082 1.19248 78.7432 1.27907C78.6422 1.40897 78.4762 1.48835 78.303 1.48113ZM72.8763 1.95741C71.9887 2.14504 71.1011 2.39039 70.2496 2.68626C69.9681 2.78008 69.665 2.63575 69.564 2.35431C69.4702 2.07287 69.6145 1.76979 69.896 1.66876C70.7908 1.35845 71.7217 1.09866 72.6526 0.903822C72.9413 0.838874 73.2299 1.0265 73.2876 1.31515C73.3237 1.48113 73.2804 1.63989 73.1794 1.76257C73.1072 1.85638 72.999 1.92854 72.8763 1.95741ZM67.731 3.73264C66.9156 4.12954 66.1218 4.58417 65.3641 5.0821C65.1187 5.24807 64.7796 5.17591 64.6208 4.92334C64.462 4.67798 64.527 4.34603 64.7795 4.18005C65.5733 3.66047 66.4104 3.18419 67.262 2.76564C67.529 2.63575 67.8537 2.74399 67.9836 3.011C68.0774 3.20584 68.0486 3.42233 67.9187 3.58109C67.8609 3.64604 67.8032 3.69656 67.731 3.73264ZM63.1775 6.713C62.4847 7.29752 61.8281 7.93256 61.2074 8.60368C61.0054 8.82017 60.6662 8.83461 60.4497 8.63255C60.2332 8.43049 60.2188 8.09854 60.4209 7.87483C61.0703 7.17484 61.7631 6.50372 62.4847 5.89033C62.7085 5.69549 63.0476 5.72435 63.2425 5.95528C63.4084 6.15734 63.4084 6.43877 63.2497 6.64083C63.228 6.66248 63.1992 6.69135 63.1775 6.713ZM57.3106 13.251C57.0508 13.1067 56.957 12.782 57.0941 12.5222C57.4838 11.8005 57.924 11.0861 58.4003 10.4078C58.4724 10.3067 58.5446 10.1985 58.6168 10.0975C58.7827 9.85212 59.1219 9.8016 59.3673 9.97479C59.6054 10.148 59.6631 10.4799 59.49 10.7253C59.4178 10.8191 59.3528 10.9201 59.2879 11.0139C58.8333 11.6634 58.4147 12.349 58.0467 13.0345C58.0323 13.0634 58.0106 13.0923 57.9962 13.1139C57.823 13.316 57.5415 13.3737 57.3106 13.251Z" fill="#F1F2F2" stroke="#231F20" stroke-width="0.115783" stroke-miterlimit="10"/>
</g>
<g opacity="0.3">
<path d="M95.4133 38.3423C94.8216 39.064 94.1793 39.7567 93.501 40.4062C93.2845 40.6083 92.9454 40.601 92.7433 40.3918C92.5412 40.1753 92.5484 39.8361 92.7577 39.6341C93.4 39.0207 94.0134 38.3568 94.5835 37.664C94.7711 37.4331 95.1103 37.4042 95.3412 37.5918C95.5721 37.7722 95.601 38.1042 95.4133 38.3423C95.4206 38.3423 95.4206 38.3351 95.4133 38.3423ZM96.3226 36.2279C96.07 36.0692 95.9979 35.7372 96.1566 35.4846C96.6329 34.7341 97.0731 33.9403 97.4628 33.1393C97.5927 32.8723 97.9102 32.7569 98.1772 32.8868C98.4442 33.0166 98.5597 33.3342 98.4298 33.6012C98.0257 34.4455 97.5638 35.2754 97.0659 36.062C97.0587 36.0764 97.0443 36.0908 97.0298 36.1125C96.8638 36.3217 96.5607 36.3723 96.3226 36.2279ZM91.3505 42.2175C90.6 42.7804 89.8062 43.2927 88.998 43.7546C88.7382 43.8989 88.4135 43.8123 88.2619 43.5525C88.1176 43.2928 88.2042 42.968 88.464 42.8165C89.2361 42.3763 89.9939 41.8783 90.7083 41.3443C90.9464 41.1639 91.2856 41.2144 91.4588 41.4526C91.6103 41.6546 91.5959 41.9216 91.4443 42.1093C91.4227 42.1598 91.3938 42.1886 91.3505 42.2175ZM98.8122 31.328C98.5308 31.2342 98.3793 30.9311 98.4731 30.6497C98.7545 29.8054 98.9927 28.9322 99.1731 28.059C99.2308 27.7704 99.5195 27.5827 99.8081 27.6405C100.097 27.6982 100.284 27.9868 100.227 28.2755C100.039 29.192 99.7937 30.1085 99.4978 30.9961C99.4762 31.0538 99.4473 31.1115 99.4112 31.162C99.2669 31.328 99.0287 31.4074 98.8122 31.328ZM86.4723 45.003C85.6135 45.3638 84.7187 45.6742 83.8166 45.9339C83.528 46.0133 83.2321 45.8473 83.1527 45.5659C83.0734 45.2773 83.2393 44.9814 83.5208 44.902C84.3795 44.6566 85.2311 44.3608 86.0537 44.0144C86.3279 43.8989 86.6455 44.0288 86.7537 44.303C86.8331 44.4907 86.797 44.6999 86.6743 44.8443C86.631 44.9092 86.5589 44.9669 86.4723 45.003ZM81.0744 46.5329C80.1507 46.6772 79.2054 46.7638 78.2745 46.7999C77.9786 46.8071 77.726 46.5762 77.7188 46.2803C77.7116 45.9845 77.9425 45.7319 78.2384 45.7247C79.126 45.6958 80.0281 45.6092 80.9084 45.4721C81.2043 45.4288 81.4785 45.6236 81.5218 45.9195C81.5435 46.0711 81.5002 46.2226 81.4136 46.3381C81.327 46.4391 81.2115 46.5113 81.0744 46.5329ZM75.4529 46.7277C74.522 46.6484 73.5838 46.504 72.6674 46.3164C72.3787 46.2515 72.1911 45.97 72.256 45.6814C72.3138 45.3927 72.6024 45.2051 72.8911 45.27C73.7642 45.4577 74.6591 45.5876 75.5467 45.6669C75.8426 45.6958 76.059 45.9556 76.0374 46.2515C76.0302 46.3597 75.9869 46.4607 75.9219 46.5401C75.8137 46.6628 75.6405 46.7422 75.4529 46.7277Z" fill="#F1F2F2"/>
<path d="M95.4133 38.3423C94.8216 39.064 94.1793 39.7567 93.501 40.4062C93.2845 40.6083 92.9454 40.601 92.7433 40.3918C92.5412 40.1753 92.5484 39.8361 92.7577 39.6341C93.4 39.0207 94.0134 38.3568 94.5835 37.664C94.7711 37.4331 95.1103 37.4042 95.3412 37.5918C95.5721 37.7722 95.601 38.1042 95.4133 38.3423ZM95.4133 38.3423C95.4206 38.3351 95.4206 38.3423 95.4133 38.3423ZM96.3226 36.2279C96.07 36.0692 95.9979 35.7372 96.1566 35.4846C96.6329 34.7341 97.0731 33.9403 97.4628 33.1393C97.5927 32.8723 97.9102 32.7569 98.1772 32.8868C98.4442 33.0166 98.5597 33.3342 98.4298 33.6012C98.0257 34.4455 97.5638 35.2754 97.0659 36.062C97.0587 36.0764 97.0442 36.0908 97.0298 36.1125C96.8638 36.3217 96.5607 36.3723 96.3226 36.2279ZM91.3505 42.2175C90.6 42.7804 89.8062 43.2927 88.998 43.7546C88.7382 43.8989 88.4135 43.8123 88.2619 43.5525C88.1176 43.2928 88.2042 42.968 88.464 42.8165C89.2361 42.3763 89.9939 41.8783 90.7083 41.3443C90.9464 41.1639 91.2856 41.2144 91.4588 41.4526C91.6103 41.6546 91.5959 41.9216 91.4443 42.1093C91.4227 42.1598 91.3938 42.1886 91.3505 42.2175ZM98.8122 31.328C98.5308 31.2342 98.3793 30.9311 98.4731 30.6497C98.7545 29.8054 98.9927 28.9322 99.1731 28.059C99.2308 27.7704 99.5195 27.5827 99.8081 27.6405C100.097 27.6982 100.284 27.9868 100.227 28.2755C100.039 29.192 99.7937 30.1085 99.4978 30.9961C99.4762 31.0538 99.4473 31.1115 99.4112 31.162C99.2669 31.328 99.0287 31.4074 98.8122 31.328ZM86.4723 45.003C85.6135 45.3638 84.7187 45.6742 83.8166 45.9339C83.528 46.0133 83.2321 45.8473 83.1527 45.5659C83.0734 45.2773 83.2393 44.9814 83.5208 44.902C84.3795 44.6566 85.2311 44.3608 86.0537 44.0144C86.3279 43.8989 86.6455 44.0288 86.7537 44.303C86.8331 44.4907 86.797 44.6999 86.6743 44.8443C86.631 44.9092 86.5589 44.9669 86.4723 45.003ZM81.0744 46.5329C80.1507 46.6772 79.2054 46.7638 78.2745 46.7999C77.9786 46.8071 77.726 46.5762 77.7188 46.2803C77.7116 45.9845 77.9425 45.7319 78.2384 45.7247C79.126 45.6958 80.0281 45.6092 80.9084 45.4721C81.2043 45.4288 81.4785 45.6236 81.5218 45.9195C81.5435 46.0711 81.5002 46.2226 81.4136 46.3381C81.327 46.4391 81.2115 46.5113 81.0744 46.5329ZM75.4529 46.7277C74.522 46.6484 73.5838 46.504 72.6674 46.3164C72.3787 46.2515 72.1911 45.97 72.256 45.6814C72.3138 45.3927 72.6024 45.2051 72.8911 45.27C73.7642 45.4577 74.6591 45.5876 75.5467 45.6669C75.8426 45.6958 76.059 45.9556 76.0374 46.2515C76.0302 46.3597 75.9869 46.4607 75.9219 46.5401C75.8137 46.6628 75.6405 46.7422 75.4529 46.7277Z" stroke="#231F20" stroke-width="0.115783" stroke-miterlimit="10"/>
<path d="M100.508 25.757C100.573 25.6776 100.616 25.5766 100.623 25.4611C100.659 24.9993 100.681 24.5446 100.695 24.09C100.703 23.7941 100.464 23.5488 100.169 23.5416C99.8727 23.5343 99.6274 23.7725 99.6201 24.0684C99.6129 24.5013 99.5913 24.9415 99.5552 25.3745C99.5336 25.6704 99.75 25.9302 100.046 25.9518C100.234 25.9663 100.4 25.8869 100.508 25.757Z" fill="#F1F2F2" stroke="#231F20" stroke-width="0.115783" stroke-miterlimit="10"/>
</g>
<path d="M93.97 17.8839C93.9484 17.7685 93.8546 17.6819 93.7391 17.6746L90.4484 17.2777C89.7845 15.8778 88.8969 14.5788 87.7928 13.4314L88.5794 10.2201C88.6083 10.1047 88.5577 9.98922 88.4639 9.92427L85.13 7.7738C85.0289 7.70885 84.9063 7.71606 84.8125 7.78823L82.2073 9.83046C80.7063 9.29645 79.1548 9.02223 77.6105 8.99336L75.893 6.15733C75.8353 6.0563 75.7198 6.00579 75.6044 6.03465L71.722 6.87175C71.6065 6.8934 71.5199 6.98721 71.5127 7.10267L71.1158 10.3933C69.7158 11.0572 68.4169 11.9449 67.2695 13.049L64.0582 12.2624C63.9427 12.2335 63.8273 12.284 63.7623 12.3778L61.6046 15.719C61.5397 15.82 61.5469 15.9427 61.6191 16.0365L63.6613 18.6416C63.1273 20.1426 62.8531 21.6942 62.8242 23.2385L59.9882 24.956C59.8871 25.0137 59.8366 25.1292 59.8655 25.2446L60.7026 29.127C60.7242 29.2425 60.818 29.3291 60.9335 29.3363L64.2242 29.7332C64.8881 31.1332 65.7757 32.4321 66.8798 33.5795L66.0932 36.7908C66.0643 36.9063 66.1149 37.0217 66.2087 37.0867L69.5498 39.2444C69.6509 39.3093 69.7735 39.3021 69.8674 39.2299L72.4725 37.1877C73.9735 37.7217 75.525 37.9959 77.0693 38.0248L78.7868 40.8608C78.8445 40.9619 78.96 41.0124 79.0754 40.9835L82.9579 40.1464C83.0733 40.1248 83.1599 40.0309 83.1671 39.9155L83.564 36.6248C84.964 35.9609 86.2629 35.0733 87.4103 33.9692L90.6216 34.7558C90.7371 34.7847 90.8526 34.7341 90.9175 34.6403L93.068 31.2991C93.1329 31.1981 93.1257 31.0754 93.0535 30.9816L91.0113 28.3765C91.5453 26.8755 91.8195 25.324 91.8484 23.7797L94.6844 22.0622C94.7855 22.0045 94.836 21.889 94.8071 21.7735L93.97 17.8839Z" fill="#F1F2F2" stroke="#231F20" stroke-width="0.115783" stroke-miterlimit="10"/>
<path d="M80.1072 26.4786C79.3134 27.2219 78.2815 27.6044 77.1918 27.5683C76.1094 27.5322 75.0991 27.0704 74.363 26.2766C72.8331 24.6384 72.9269 22.0622 74.565 20.5323C76.2032 19.0025 78.7794 19.0963 80.3093 20.7344C81.0526 21.5282 81.435 22.5601 81.3989 23.6498C81.3701 24.5302 81.0598 25.3601 80.5186 26.0384C80.3959 26.19 80.2588 26.3343 80.1072 26.4786ZM75.1496 25.5405C75.6908 26.125 76.4341 26.4642 77.2351 26.4931C78.0361 26.5219 78.7938 26.2333 79.3784 25.692C79.9629 25.1436 80.3021 24.4075 80.3309 23.6065C80.3598 22.8055 80.0711 22.0478 79.5299 21.4632C78.4042 20.2581 76.5135 20.1932 75.3011 21.3117C75.1929 21.4127 75.0918 21.521 75.0052 21.6364C74.0888 22.7766 74.1248 24.4436 75.1496 25.5405Z" fill="#F1F2F2" stroke="#231F20" stroke-width="0.115783" stroke-miterlimit="10"/>
<path d="M85.1587 29.8414C85.368 29.5744 85.5701 29.3002 85.7577 29.0043C86.1329 28.427 86.4432 27.8064 86.6958 27.1642C86.7102 27.1353 86.7175 27.1064 86.7319 27.0776C86.8185 26.8539 86.7391 26.6085 86.5659 26.4714C86.5226 26.4353 86.4721 26.4065 86.4216 26.3848C86.1474 26.2766 85.8371 26.4209 85.7288 26.6951C85.5051 27.2941 85.2092 27.8714 84.8629 28.4126C84.8412 28.4415 84.8268 28.4703 84.8051 28.4992C83.968 29.7693 82.8423 30.7868 81.5289 31.4868C80.8145 31.8692 80.0495 32.1507 79.2413 32.3311C79.2341 32.3311 79.2269 32.3311 79.2197 32.3383C79.198 32.3455 79.1764 32.3455 79.1619 32.3527C76.8022 32.8651 74.3775 32.4177 72.3497 31.1115C72.0899 30.9455 71.8373 30.7579 71.592 30.5703C69.9683 29.2714 68.8497 27.4745 68.4095 25.4178C67.8972 23.0581 68.3446 20.6334 69.6508 18.6056C70.9641 16.5778 72.9847 15.1778 75.3445 14.6654C77.7042 14.1531 80.1289 14.6005 82.1567 15.9066C82.4165 16.0726 82.6619 16.253 82.9 16.4407C83.9319 17.2705 84.7762 18.3097 85.3608 19.5004C85.3969 19.5726 85.4474 19.6375 85.5051 19.6808C85.6639 19.8035 85.8876 19.8396 86.0752 19.7458C86.3422 19.6159 86.4504 19.2911 86.3206 19.0241C85.6639 17.6963 84.7257 16.5273 83.5639 15.6036C83.2969 15.3871 83.0155 15.1922 82.7268 15.0046C80.4537 13.5397 77.7475 13.0417 75.1063 13.6118C72.4651 14.1819 70.1992 15.7407 68.7343 18.021C67.2694 20.2942 66.7714 23.0003 67.3415 25.6415C67.8394 27.9435 69.0879 29.9569 70.8992 31.4074C71.1662 31.6239 71.4476 31.8259 71.7435 32.0136C76.1599 34.8568 81.9547 33.8465 85.1587 29.8414Z" fill="#F1F2F2" stroke="#231F20" stroke-width="0.115783" stroke-miterlimit="10"/>
<path d="M191.412 90.2713H151.34V102.128H191.412V90.2713Z" fill="#F35815"/>
<path d="M191.874 57.6533L153.721 57.408C144.643 57.3503 137.167 64.7254 137.109 73.8036L137.008 88.9146C136.986 92.3352 139.765 95.1496 143.185 95.1784L201.898 95.5609C205.318 95.5826 208.132 92.8043 208.161 89.3837L208.262 74.2726C208.327 65.1872 200.945 57.7111 191.874 57.6533Z" fill="#F37A46"/>
<path d="M198.376 79.3385C198.362 81.9797 196.341 84.1807 193.707 84.4116C179.469 85.6601 164.712 85.6023 149.521 84.1085C146.887 83.8488 144.881 81.6189 144.896 78.9705L144.91 76.1922C144.924 73.5582 146.938 71.3644 149.557 71.1191C164.336 69.748 179.108 69.5892 193.88 71.3356C196.464 71.6387 198.405 73.8541 198.383 76.4592L198.376 79.3385Z" fill="#F35815"/>
<path d="M157.221 80.9334C159.014 80.9334 160.468 79.4795 160.468 77.686C160.468 75.8925 159.014 74.4386 157.221 74.4386C155.428 74.4386 153.974 75.8925 153.974 77.686C153.974 79.4795 155.428 80.9334 157.221 80.9334Z" fill="#F3D4C7"/>
<path d="M189.327 77.8953C189.312 79.6922 187.855 81.1354 186.058 81.121C184.261 81.1066 182.818 79.6489 182.832 77.852C182.847 76.0551 184.304 74.6118 186.101 74.6263C187.898 74.6335 189.341 76.0984 189.327 77.8953Z" fill="#F3D4C7"/>
<path d="M142.197 49.7586C142.19 50.7545 141.381 51.5555 140.385 51.5483C139.39 51.5411 138.589 50.7328 138.596 49.737C138.603 48.7411 139.411 47.9401 140.407 47.9473C141.403 47.9545 142.204 48.77 142.197 49.7586Z" fill="#F37A46"/>
<path d="M140.299 64.646C140.299 64.646 144.6 65.2233 146.988 59.6234L145.863 57.2564C145.48 56.4482 144.513 56.1163 143.712 56.5059L141.23 57.7255C140.689 57.9925 140.342 58.5482 140.335 59.1543L140.299 64.646Z" fill="#F35815"/>
<path d="M140.746 50.5885C140.703 50.4803 140.537 50.5308 140.559 50.6462L141.987 58.5698C142.023 58.7502 142.139 58.9018 142.312 58.9739C142.485 59.0461 142.673 59.0317 142.825 58.9306L143.286 58.6275C143.669 58.375 143.82 57.8843 143.64 57.4657L140.746 50.5885Z" fill="#F37A46"/>
<path d="M203.485 50.1628C203.478 51.1586 204.279 51.9741 205.275 51.9741C206.271 51.9813 207.086 51.1803 207.086 50.1844C207.094 49.1886 206.293 48.3731 205.297 48.3731C204.301 48.3587 203.493 49.1669 203.485 50.1628Z" fill="#F37A46"/>
<path d="M205.188 65.0646C205.188 65.0646 200.88 65.5841 198.563 59.9554L199.725 57.6028C200.122 56.8018 201.089 56.4771 201.89 56.8812L204.351 58.1296C204.892 58.4039 205.231 58.9595 205.224 59.5657L205.188 65.0646Z" fill="#F35815"/>
<path d="M205.116 51.0576L203.586 58.9234C203.55 59.111 203.42 59.2698 203.247 59.342C203.074 59.4141 202.871 59.3925 202.713 59.2842L202.287 58.9956C201.904 58.7358 201.767 58.2451 201.948 57.8265L204.928 50.9926C204.971 50.8916 205.137 50.9421 205.116 51.0576Z" fill="#F37A46"/>
<path d="M152.588 66.6016C151.606 66.5944 150.784 65.8439 150.697 64.8481C150.61 63.7945 151.39 62.878 152.443 62.7914C166.328 61.6512 179.007 61.6945 191.217 62.9213C192.263 63.0295 193.028 63.9604 192.927 65.014C192.819 66.0604 191.888 66.8253 190.834 66.7243C178.862 65.5192 166.407 65.4759 152.761 66.6016C152.703 66.6016 152.645 66.6016 152.588 66.6016Z" fill="#F3D4C7"/>
<path d="M171.87 86.3384C164.156 86.2879 156.384 85.8549 148.597 85.0394C145.747 84.7436 143.611 82.2034 143.625 79.1365L143.647 76.0406C143.668 72.9953 145.819 70.4913 148.648 70.2098C165.346 68.5428 180.45 68.615 194.818 70.4335C197.596 70.7871 199.682 73.3129 199.66 76.3221L199.639 79.5189C199.617 82.5787 197.459 85.0827 194.616 85.3498C187.14 86.057 179.534 86.3889 171.87 86.3384ZM172.952 69.3799C165.202 69.3294 157.149 69.7263 148.691 70.5706C146.043 70.8376 144.029 73.1902 144.015 76.0479L143.993 79.1437C143.971 82.023 145.97 84.4044 148.64 84.6859C164.127 86.3095 179.591 86.4106 194.594 84.9961C197.25 84.7436 199.27 82.391 199.292 79.5189L199.314 76.3221C199.335 73.5005 197.387 71.1191 194.782 70.7943C187.717 69.8995 180.472 69.4305 172.952 69.3799Z" fill="#F3D4C7"/>
<path d="M201.226 173.692H143.438C138.393 173.692 134.302 169.601 134.302 164.557V109.221C134.302 104.177 138.393 100.086 143.438 100.086H201.226C206.271 100.086 210.362 104.177 210.362 109.221V164.557C210.355 169.601 206.271 173.692 201.226 173.692Z" fill="#F37A46"/>
<path d="M188.315 120.659C188.315 121.128 188.294 121.59 188.258 122.045C187.839 127.075 185.162 131.592 181.178 134.551C178.4 136.622 174.98 137.935 171.249 138.13C161.42 138.65 153.229 131.239 153.229 121.576C153.229 116.582 155.416 112.072 158.887 108.882C159.414 108.399 159.97 107.944 160.554 107.518C163.563 105.346 167.265 104.069 171.249 104.069C180.789 104.076 188.315 111.502 188.315 120.659Z" fill="url(#paint0_linear_42_60)"/>
<path d="M170.772 133.656C163.859 133.656 158.237 128.034 158.237 121.121C158.237 114.208 163.859 108.586 170.772 108.586C177.685 108.586 183.307 114.208 183.307 121.121C183.307 128.034 177.685 133.656 170.772 133.656ZM170.772 109.669C164.458 109.669 159.327 114.807 159.327 121.114C159.327 127.428 164.465 132.559 170.772 132.559C177.086 132.559 182.217 127.421 182.217 121.114C182.217 114.807 177.086 109.669 170.772 109.669Z" fill="white"/>
<path d="M164.761 120.118C165.646 120.118 166.363 119.401 166.363 118.516C166.363 117.631 165.646 116.914 164.761 116.914C163.876 116.914 163.159 117.631 163.159 118.516C163.159 119.401 163.876 120.118 164.761 120.118Z" fill="white"/>
<path d="M176.661 120.118C177.545 120.118 178.263 119.401 178.263 118.516C178.263 117.631 177.545 116.914 176.661 116.914C175.776 116.914 175.059 117.631 175.059 118.516C175.059 119.401 175.776 120.118 176.661 120.118Z" fill="white"/>
<path d="M176.971 123.156C176.971 125.884 174.222 127.955 170.823 127.955C167.424 127.955 164.675 125.884 164.675 123.156H176.971Z" fill="white"/>
<path d="M146.851 144.185C146.843 145.181 146.035 145.974 145.039 145.967C144.043 145.96 143.25 145.152 143.257 144.156C143.264 143.16 144.072 142.366 145.068 142.373C146.057 142.381 146.858 143.196 146.851 144.185Z" fill="#F3D4C7"/>
<path d="M146.851 155.081C146.843 156.077 146.035 156.871 145.039 156.864C144.043 156.857 143.25 156.048 143.257 155.053C143.264 154.057 144.072 153.263 145.068 153.27C146.057 153.277 146.858 154.093 146.851 155.081Z" fill="#F3D4C7"/>
<path d="M146.851 165.978C146.843 166.974 146.035 167.768 145.039 167.761C144.043 167.753 143.25 166.945 143.257 165.949C143.264 164.953 144.072 164.16 145.068 164.167C146.057 164.174 146.858 164.99 146.851 165.978Z" fill="#F3D4C7"/>
<path d="M149.614 144.091L149.621 144.394C149.643 145.224 150.162 145.881 150.797 145.881L198.945 145.953C199.602 145.953 200.128 145.26 200.128 144.408C200.128 143.571 199.616 142.886 198.974 142.864L150.819 142.482C150.141 142.474 149.592 143.203 149.614 144.091Z" fill="#F3D4C7"/>
<path d="M149.614 154.937L149.621 155.24C149.643 156.07 150.162 156.727 150.797 156.727L198.945 156.799C199.602 156.799 200.128 156.106 200.128 155.255C200.128 154.418 199.616 153.732 198.974 153.71L150.819 153.328C150.141 153.321 149.592 154.05 149.614 154.937Z" fill="#F3D4C7"/>
<path d="M149.614 165.783L149.621 166.086C149.643 166.916 150.162 167.573 150.797 167.573L198.945 167.645C199.602 167.645 200.128 166.952 200.128 166.101C200.128 165.264 199.616 164.578 198.974 164.557L150.819 164.174C150.141 164.167 149.592 164.896 149.614 165.783Z" fill="#F3D4C7"/>
<path d="M52.3161 101.81H101.972C102.874 101.81 103.61 102.546 103.61 103.448V153.992C103.61 155.507 102.376 156.741 100.861 156.741H52.7707C51.1542 156.741 49.8409 155.428 49.8409 153.811V104.293C49.8336 102.922 50.945 101.81 52.3161 101.81Z" fill="#F35815"/>
<path d="M54.5021 104.545L99.2941 104.949C100.283 104.957 101.084 105.765 101.084 106.754V151.762C101.084 152.758 100.276 153.566 99.2797 153.566L54.4877 153.537C53.4918 153.537 52.6836 152.729 52.6836 151.733V106.342C52.6836 105.346 53.499 104.538 54.5021 104.545Z" fill="#F3D4C7"/>
<path d="M54.1055 151.473C54.1055 151.473 61.4734 146.826 63.494 139.884C65.5145 132.949 72.0165 142.179 72.0165 142.179C72.0165 142.179 77.003 138.859 79.6081 131.462C82.2132 124.066 95.2099 148.435 98.0964 150.167C100.983 151.899 54.1055 151.473 54.1055 151.473Z" fill="black"/>
<path d="M68.6245 124.434C70.5017 124.434 72.0234 122.912 72.0234 121.035C72.0234 119.158 70.5017 117.636 68.6245 117.636C66.7473 117.636 65.2256 119.158 65.2256 121.035C65.2256 122.912 66.7473 124.434 68.6245 124.434Z" fill="black"/>
<path d="M66.5396 116.64C66.9342 116.64 67.254 116.32 67.254 115.925C67.254 115.531 66.9342 115.211 66.5396 115.211C66.1451 115.211 65.8252 115.531 65.8252 115.925C65.8252 116.32 66.1451 116.64 66.5396 116.64Z" fill="white"/>
<path d="M69.5562 125.336C69.9508 125.336 70.2706 125.016 70.2706 124.621C70.2706 124.227 69.9508 123.907 69.5562 123.907C69.1617 123.907 68.8418 124.227 68.8418 124.621C68.8418 125.016 69.1617 125.336 69.5562 125.336Z" fill="white"/>
<path d="M61.69 124.664C62.0846 124.664 62.4044 124.345 62.4044 123.95C62.4044 123.556 62.0846 123.236 61.69 123.236C61.2954 123.236 60.9756 123.556 60.9756 123.95C60.9756 124.345 61.2954 124.664 61.69 124.664Z" fill="white"/>
<path d="M65.7095 134.702C66.1041 134.702 66.424 134.383 66.424 133.988C66.424 133.593 66.1041 133.274 65.7095 133.274C65.315 133.274 64.9951 133.593 64.9951 133.988C64.9951 134.383 65.315 134.702 65.7095 134.702Z" fill="white"/>
<path d="M75.0689 116.64C75.4635 116.64 75.7833 116.32 75.7833 115.925C75.7833 115.531 75.4635 115.211 75.0689 115.211C74.6744 115.211 74.3545 115.531 74.3545 115.925C74.3545 116.32 74.6744 116.64 75.0689 116.64Z" fill="white"/>
<path d="M74.5718 140.721C74.9664 140.721 75.2863 140.401 75.2863 140.006C75.2863 139.612 74.9664 139.292 74.5718 139.292C74.1773 139.292 73.8574 139.612 73.8574 140.006C73.8574 140.401 74.1773 140.721 74.5718 140.721Z" fill="white"/>
<path d="M83.7652 116.64C84.1598 116.64 84.4796 116.32 84.4796 115.925C84.4796 115.531 84.1598 115.211 83.7652 115.211C83.3706 115.211 83.0508 115.531 83.0508 115.925C83.0508 116.32 83.3706 116.64 83.7652 116.64Z" fill="white"/>
<path d="M78.9156 125.336C79.3102 125.336 79.63 125.016 79.63 124.621C79.63 124.227 79.3102 123.907 78.9156 123.907C78.521 123.907 78.2012 124.227 78.2012 124.621C78.2012 125.016 78.521 125.336 78.9156 125.336Z" fill="white"/>
<path d="M87.9508 125.336C88.3453 125.336 88.6652 125.016 88.6652 124.621C88.6652 124.227 88.3453 123.907 87.9508 123.907C87.5562 123.907 87.2363 124.227 87.2363 124.621C87.2363 125.016 87.5562 125.336 87.9508 125.336Z" fill="white"/>
<path d="M83.2672 134.702C83.6617 134.702 83.9816 134.383 83.9816 133.988C83.9816 133.593 83.6617 133.274 83.2672 133.274C82.8726 133.274 82.5527 133.593 82.5527 133.988C82.5527 134.383 82.8726 134.702 83.2672 134.702Z" fill="white"/>
<path d="M74.5709 140.108L74.5204 140.079L65.6443 134.046L61.6104 123.95L66.5175 115.853L83.8223 115.861L83.844 115.911L88.0439 124.636L88.0222 124.672L83.3316 134.053L83.3172 134.067L74.5709 140.108ZM65.7814 133.93L74.5709 139.905L83.2017 133.93L87.8563 124.628L83.7141 116.019H75.1122L66.6113 116.012L61.798 123.965L65.7814 133.93Z" fill="white"/>
<path d="M74.5783 140.295L69.4619 124.614L69.4836 124.578L75.1268 115.76L79.0092 124.614L79.0019 124.643L74.5783 140.295ZM69.6423 124.636L74.5639 139.725L78.8288 124.636L75.0979 116.12L69.6423 124.636Z" fill="white"/>
<path d="M78.9508 124.715H69.5551L61.7109 124.051L61.7254 123.885L69.5551 124.549H78.9725L87.9857 124.542V124.715H78.9508Z" fill="white"/>
<path d="M65.5859 134.075L65.6365 133.959L69.6632 124.296L66.4808 115.962L66.6395 115.904L69.8436 124.304L69.8364 124.333L65.8385 133.901H83.1361L78.8207 124.296L83.9083 115.882L84.0526 115.969L79.0084 124.304L83.3959 134.067L65.5859 134.075Z" fill="white"/>
<defs>
<linearGradient id="paint0_linear_42_60" x1="174.774" y1="135.806" x2="166.595" y2="105.818" gradientUnits="userSpaceOnUse">
<stop stop-color="#FE7062"/>
<stop offset="1" stop-color="#FF928E"/>
</linearGradient>
</defs>
</svg>
