<svg width="263" height="247" viewBox="0 0 263 247" fill="none" xmlns="http://www.w3.org/2000/svg">
<path d="M90.952 53.2252H113.949C117.688 53.2252 120.716 56.2768 120.716 60.0449V64.2464C120.716 66.9177 122.287 69.306 124.683 70.4382C127.185 71.6146 130.564 73.4544 133.952 76.0638C136.129 77.7356 139.087 77.9567 141.448 76.568L145.108 74.4274C148.356 72.5257 152.516 73.6579 154.377 76.9484L165.27 96.1958C167.122 99.4597 165.998 103.617 162.759 105.492L159.503 107.376C157.116 108.756 155.799 111.427 156.168 114.178C156.527 116.805 156.685 120.635 155.992 125.695C155.597 128.561 157.028 131.4 159.591 132.727L162.593 134.275C165.919 135.991 167.236 140.104 165.533 143.456L154.728 164.703C153.64 166.835 151.524 168.241 149.155 168.4L126.606 169.904C122.98 170.143 120.198 173.23 120.286 176.883L120.339 178.9C120.435 182.73 117.381 185.896 113.571 185.896H90.8554C87.1163 185.896 84.0881 182.845 84.0881 179.077V175.813C84.0881 173.23 82.6486 170.868 80.3489 169.718C77.3295 168.206 73.1252 166.012 70.2287 164.137C68.1572 162.784 65.4977 162.766 63.3384 163.986L60.4244 165.641C57.1855 167.472 53.0953 166.339 51.2433 163.093L39.9819 143.377C38.1036 140.086 39.2534 135.876 42.5449 134.027L45.4063 132.409C47.6797 131.126 49.0402 128.641 48.8558 126.013C48.6276 122.847 48.4433 118.415 48.7681 114.568C48.9963 111.887 47.7674 109.313 45.4678 107.96L42.3606 106.129C39.1569 104.236 38.0597 100.105 39.9029 96.8504L51.1116 77.1253C53.0163 73.7729 57.2909 72.6849 60.5473 74.7105L63.1629 76.338C65.4801 77.7887 68.4205 77.6825 70.65 76.0904C73.3358 74.1709 77.1101 71.6411 80.4806 70.0225C82.8241 68.8902 84.2548 66.4666 84.2285 63.8396L84.1846 60.1422C84.132 56.3387 87.1777 53.2252 90.952 53.2252Z" fill="#F35815"/>
<path d="M175.856 158.361H191.612V165.057C191.612 165.057 195.527 166.348 198.765 169.435L204.646 166.003L212.23 179.395L206.437 182.739C206.437 182.739 207.718 185.658 206.437 191.584L212.23 194.574L207.253 204.365C206.165 206.497 204.049 207.904 201.679 208.063L191.366 208.753L191.533 215.449H175.856V209.266C175.856 209.266 169.642 206.347 168.615 205.055L163.164 208.142L155.414 194.565L160.865 191.487C160.865 191.487 160.18 185.817 160.953 182.898L155.414 179.634L163.164 165.985L168.527 169.329C168.527 169.329 173.293 165.552 175.935 164.951L175.856 158.361Z" fill="#F3D4C7"/>
<path d="M84.5803 116.982L91.2248 105.82C92.4448 103.767 94.6479 102.511 97.0266 102.511H108.393C110.754 102.511 112.949 103.75 114.177 105.784L120.524 116.301C121.752 118.327 121.84 120.857 120.76 122.971L115.283 133.691C114.125 135.964 111.799 137.389 109.262 137.389H96.2717C93.8755 137.389 91.6548 136.115 90.4436 134.027L84.554 123.952C83.2988 121.803 83.3076 119.123 84.5803 116.982Z" fill="black"/>
<path d="M133.304 38.9488L139.738 35.2779C141.897 34.0484 144.548 34.1015 146.646 35.4195L152.21 38.9134C154.194 40.1606 155.405 42.3454 155.405 44.7071V52.6679C155.405 55.118 154.098 57.3824 151.991 58.5942L146.057 61.9997C143.942 63.2115 141.344 63.1938 139.255 61.9378L133.19 58.3112C131.136 57.0817 129.872 54.8527 129.872 52.4467V44.8928C129.881 42.425 131.189 40.1606 133.304 38.9488Z" fill="#F3D4C7"/>
<path d="M52.6312 188.647L65.6129 211.734C66.7627 213.777 66.789 216.28 65.6743 218.341L52.5522 242.772C51.3672 244.974 49.0851 246.345 46.6011 246.345H20.4886C18.0748 246.345 15.8453 245.054 14.6341 242.949L0.915086 219.111C-0.296187 217.014 -0.304965 214.423 0.888753 212.317L13.8968 189.258C15.0729 187.17 17.2497 185.861 19.6284 185.808L46.5924 185.189C49.0851 185.136 51.4023 186.462 52.6312 188.647Z" fill="#F3D4C7"/>
<path d="M90.2324 200.854L96.4467 199.111C98.7376 198.466 101.187 199.085 102.916 200.721L108.191 205.745C109.946 207.417 110.684 209.894 110.131 212.264L108.726 218.288C108.182 220.597 106.488 222.463 104.25 223.206L97.3771 225.479C94.937 226.284 92.2599 225.638 90.4518 223.799L85.3434 218.598C83.5967 216.82 82.956 214.228 83.6669 211.84L85.5628 205.453C86.2299 203.216 87.9942 201.482 90.2324 200.854Z" fill="#F3D4C7"/>
<path d="M252.386 159.873C252.386 159.873 264.411 161.872 262.682 174.636C260.953 187.409 249.419 186.604 249.419 186.604L161.356 172.867C159.092 172.513 156.853 173.336 155.309 175.043C152.412 178.236 146.163 182.951 134.787 182.42C117.759 181.624 115.144 169.249 115.144 169.249C115.144 169.249 115.389 165.26 120.735 165.658L131.171 167.135C133.427 167.454 135.7 166.605 137.201 164.88L140.694 160.864C142.301 159.015 142.801 156.441 141.993 154.115L140.308 149.25C139.466 146.826 137.35 145.084 134.822 144.739L132.294 144.394C125.097 143.412 124.211 133.152 131.189 131.108C131.39 131.046 131.592 130.993 131.803 130.931C146.18 126.88 156.09 138.521 159.741 143.819C160.83 145.394 162.48 146.464 164.358 146.747L252.386 159.873Z" fill="#F38800"/>
<path d="M88.4515 98.7167L61.1277 56.6217L58.749 58.6208L84.8792 98.7255L85.7657 100.22L85.8622 102.016C85.8622 102.016 84.414 103.414 86.6171 106.005L93.3844 113.391L97.1499 110.702L92.4979 100.53C92.4979 100.53 91.901 99.3359 89.0309 99.2297L88.4515 98.7167Z" fill="#F3D4C7"/>
<path d="M49.7438 54.2247L61.2246 46.8388C61.2246 46.8388 63.0064 45.1405 64.8847 47.5376L66.57 50.2354C66.57 50.2354 67.6584 52.0222 65.78 53.2163L55.6861 60.098C55.6861 60.098 53.9043 62.1943 51.9206 60.098L48.9539 56.6041C48.9539 56.6217 47.9971 55.3569 49.7438 54.2247Z" fill="#F37A46"/>
<path d="M36.5863 2.90402L58.477 37.5777C59.0475 38.4888 59.4074 39.5237 59.5039 40.594L59.7673 43.3803C60.0042 45.9277 58.8105 48.3956 56.6688 49.7755L54.3692 51.2526C52.1046 52.7121 49.1993 52.6767 46.9699 51.173L44.3718 49.4216C43.5818 48.8909 42.906 48.1921 42.3969 47.3784L21.0767 13.1292C20.4272 12.0855 20.0322 10.9002 20.0322 9.66185C20.041 7.45052 20.8046 4.04506 24.9037 1.70105C31.434 -2.03168 36.5863 2.90402 36.5863 2.90402Z" fill="#F3D4C7"/>
</svg>
