<svg width="208" height="201" viewBox="0 0 208 201" fill="none" xmlns="http://www.w3.org/2000/svg">
<path d="M118.624 4.95116L138.704 3.54832C139.444 3.49947 140.079 4.07177 140.107 4.81157L140.916 26.4265L119.043 27.3338L117.738 5.9492C117.717 5.43273 118.108 4.98606 118.624 4.95116Z" fill="#F3D4C7"/>
<path d="M131.495 4.71387H155.253C155.685 4.71387 156.034 5.06283 156.034 5.49555V29.6788C156.034 30.4047 155.448 30.9909 154.722 30.9909H131.711C130.937 30.9909 130.309 30.3628 130.309 29.5881V5.90035C130.309 5.24429 130.839 4.71387 131.495 4.71387Z" fill="#F35815"/>
<path d="M132.542 6.01904L153.969 6.21447C154.443 6.22144 154.827 6.6053 154.827 7.0799V28.618C154.827 29.0926 154.443 29.4835 153.962 29.4835L132.535 29.4695C132.061 29.4695 131.67 29.0856 131.67 28.6041V6.88448C131.67 6.40291 132.068 6.01904 132.542 6.01904Z" fill="#F3D4C7"/>
<path d="M132.354 28.4715C132.354 28.4715 135.878 26.2451 136.848 22.9299C137.818 19.6077 140.924 24.0326 140.924 24.0326C140.924 24.0326 143.311 22.4483 144.553 18.9098C145.796 15.3713 152.014 27.0267 153.403 27.8573C154.785 28.6808 132.354 28.4715 132.354 28.4715Z" fill="black"/>
<path d="M139.298 15.5389C140.196 15.5389 140.924 14.8108 140.924 13.9127C140.924 13.0146 140.196 12.2865 139.298 12.2865C138.4 12.2865 137.672 13.0146 137.672 13.9127C137.672 14.8108 138.4 15.5389 139.298 15.5389Z" fill="black"/>
<g opacity="0.5">
<g opacity="0.53">
<path d="M22.9734 107.065H0.5V198.117H22.9734V107.065Z" fill="white"/>
</g>
<g opacity="0.53">
<path d="M52.1257 107.065H29.6523V198.117H52.1257V107.065Z" fill="white"/>
</g>
<g opacity="0.53">
<path d="M83.2116 107.065H60.7383V198.117H83.2116V107.065Z" fill="white"/>
</g>
<g opacity="0.53">
<path d="M114.227 107.065H91.7539V198.117H114.227V107.065Z" fill="white"/>
</g>
<g opacity="0.53">
<path d="M145.244 107.065H122.771V198.117H145.244V107.065Z" fill="white"/>
</g>
<g opacity="0.53">
<path d="M176.665 107.065H154.191V198.117H176.665V107.065Z" fill="white"/>
</g>
<g opacity="0.53">
<path d="M207.555 107.065H185.082V198.117H207.555V107.065Z" fill="white"/>
</g>
<path d="M22.8338 175.784H0.5V198.117H22.8338V175.784Z" fill="#F3D4C7"/>
<path d="M52.0564 166.766H29.7227V198.117H52.0564V166.766Z" fill="#F3D4C7"/>
<path d="M83.2264 157.805H60.8926V198.18H83.2264V157.805Z" fill="#F3D4C7"/>
<path d="M114.668 148.983H91.4404V198.18H114.668V148.983Z" fill="url(#paint0_linear_42_283)"/>
<path d="M145.656 135.785H122.429V198.18H145.656V135.785Z" fill="#F3D4C7"/>
<path d="M177.042 121.254H153.814V198.494H177.042V121.254Z" fill="#F3D4C7"/>
<path d="M207.604 112.837H184.377V198.501H207.604V112.837Z" fill="#F3D4C7"/>
</g>
<path d="M150.597 149.953C150.597 151.195 133.512 153.624 112.19 153.624C90.8682 153.624 74.3203 150.916 74.3203 149.674C74.3203 148.432 90.6658 147.706 111.988 147.706C133.309 147.706 150.597 148.711 150.597 149.953Z" fill="#F35815"/>
<path d="M166.524 94.4327C166.524 96.0031 139.745 99.8766 109.657 99.8766C79.5693 99.8766 58.9385 96.1008 58.9385 94.5305C58.9385 92.9601 82.1656 91.8295 112.26 91.8295C142.355 91.8295 166.524 92.8624 166.524 94.4327Z" fill="#F37A46"/>
<path d="M159.503 87.7466C127.873 89.8055 95.6076 89.6659 62.7769 87.5651C58.9942 87.3208 55.7697 84.7175 54.7298 81.0674L42.9697 39.9314C42.7813 39.2683 43.3187 38.6193 44.0096 38.6891C88.6911 42.9883 134.266 42.8766 180.678 38.6821C181.369 38.6193 181.914 39.2683 181.718 39.9384L170.44 78.9596C169.009 83.894 164.64 87.4116 159.503 87.7466Z" fill="#F3D4C7"/>
<path d="M146.926 143.379C123.036 146.052 99.7599 145.947 77.0283 143.33C74.1668 143.002 71.7799 141.006 70.9563 138.249L58.1354 95.34C57.9888 94.8445 58.4424 94.3769 58.945 94.5165C76.121 99.3252 151.197 99.716 166 94.4467C166.308 94.335 166.608 94.6211 166.51 94.9282L153.647 137.767C152.733 140.824 150.088 143.023 146.926 143.379Z" fill="#F37A46"/>
<path d="M131.062 198.941C118.213 200.748 105.462 200.707 92.8227 198.871C89.9891 198.459 87.6441 196.456 86.8205 193.713L73.8879 150.435C73.7622 150.016 74.1182 149.604 74.5509 149.674C98.7481 153.547 127.705 153.345 149.599 149.73C150.165 149.639 150.639 150.169 150.472 150.721L137.707 193.232C136.799 196.275 134.203 198.501 131.062 198.941Z" fill="#F35815"/>
<path d="M181.216 38.7798C181.216 40.6083 150.877 42.0949 112.344 42.0949C73.8115 42.0949 43.4795 40.6083 43.4795 38.7798C43.4795 36.9512 73.8115 35.4646 112.344 35.4646C150.877 35.4646 181.216 36.9512 181.216 38.7798Z" fill="#F35815"/>
<path d="M65.7565 12.8029C69.2141 12.8029 72.017 9.99996 72.017 6.54242C72.017 3.08487 69.2141 0.281982 65.7565 0.281982C62.299 0.281982 59.4961 3.08487 59.4961 6.54242C59.4961 9.99996 62.299 12.8029 65.7565 12.8029Z" fill="#F35815"/>
<path d="M90.2752 29.9789C92.4492 29.9789 94.2115 28.2165 94.2115 26.0425C94.2115 23.8686 92.4492 22.1062 90.2752 22.1062C88.1012 22.1062 86.3389 23.8686 86.3389 26.0425C86.3389 28.2165 88.1012 29.9789 90.2752 29.9789Z" fill="#F3D4C7"/>
<path d="M98.9428 29.951L107.597 26.0914C107.758 26.0217 107.939 26.0914 108.009 26.252L111.938 35.0599C112.057 35.3251 111.938 35.6322 111.673 35.7508L103.291 39.4917C103.012 39.6173 102.677 39.4917 102.551 39.2056L98.6985 30.5791C98.6008 30.3418 98.7055 30.0627 98.9428 29.951Z" fill="#F35815"/>
<path d="M99.5353 30.258L107.373 26.8452C107.548 26.7684 107.75 26.8452 107.827 27.0196L111.323 34.8644C111.4 35.0389 111.323 35.2413 111.149 35.318L103.346 38.7937C103.171 38.8705 102.969 38.7937 102.892 38.6192L99.3608 30.7117C99.284 30.5442 99.3608 30.3348 99.5353 30.258Z" fill="#F3D4C7"/>
<path d="M103.116 38.4657C103.116 38.4657 104.037 37.0838 103.849 35.7159C103.661 34.3479 105.51 35.4506 105.51 35.4506C105.51 35.4506 106.124 34.4875 105.999 32.9939C105.88 31.5004 110.04 34.7388 110.675 34.8155C111.324 34.8993 103.116 38.4657 103.116 38.4657Z" fill="black"/>
<path d="M103.284 32.6868C103.642 32.6868 103.933 32.3962 103.933 32.0377C103.933 31.6793 103.642 31.3887 103.284 31.3887C102.925 31.3887 102.635 31.6793 102.635 32.0377C102.635 32.3962 102.925 32.6868 103.284 32.6868Z" fill="black"/>
<defs>
<linearGradient id="paint0_linear_42_283" x1="103.034" y1="171.83" x2="103.641" y2="234.384" gradientUnits="userSpaceOnUse">
<stop stop-color="#53D8FF"/>
<stop offset="1" stop-color="#3840F7"/>
</linearGradient>
</defs>
</svg>
