<svg width="249" height="196" viewBox="0 0 249 196" fill="none" xmlns="http://www.w3.org/2000/svg">
<path d="M18.7867 25.6761H208.293C212.239 25.6761 215.446 28.8746 215.446 32.8286V169.126C215.446 172.188 212.963 174.679 209.893 174.679H18.3929C15.3391 174.679 12.8478 172.22 12.8156 169.158L11.4495 33.0938C11.4173 29.0032 14.7122 25.6761 18.7867 25.6761Z" fill="#F35815"/>
<path d="M202.105 39.3381H23.1182V162.609H202.105V39.3381Z" fill="#F3D4C7"/>
<path d="M0.0621989 88.1513L12.0124 168.869C12.5106 172.204 15.2992 174.671 18.5942 174.671H209.965C213.108 174.671 215.776 172.293 216.218 169.094L229.325 73.8465C229.325 73.8465 229.968 68.5826 222.711 68.3657H129.931C128.01 68.3657 126.218 69.322 125.149 70.9132L119.612 79.1505C118.543 80.7417 116.751 81.6981 114.83 81.6981H5.40642C5.40642 81.6981 5.33409 81.6981 5.20551 81.6981C1.95879 81.7945 -0.419986 84.8644 0.0621989 88.1513Z" fill="#F38800"/>
<path d="M0.0622095 92.4427L12.0124 170.693C12.5106 173.948 15.3073 176.351 18.5942 176.351H209.965C213.116 176.351 215.776 174.037 216.218 170.918L229.325 78.5638C229.325 78.5638 229.968 73.4607 222.711 73.2518L132.663 75.1403C130.212 75.1403 127.922 76.3377 126.523 78.3549L122.015 84.8644C120.617 86.8735 118.326 88.079 115.875 88.079L5.40643 86.1904C5.40643 86.1904 5.32606 86.1904 5.18944 86.1904C1.9588 86.2708 -0.419976 89.2443 0.0622095 92.4427Z" fill="#F3D4C7"/>
<path d="M60.8978 0.915955H41.0479V21.1918H60.8978V0.915955Z" fill="#F38800"/>
<path d="M59.0896 3.26251H43.0811V18.8451H59.0896V3.26251Z" fill="#F3CE9E"/>
<path d="M45.002 16.9244C45.002 16.9244 47.1396 15.3252 47.887 12.7616C48.6344 10.198 49.1648 13.9349 49.1648 13.9349C49.1648 13.9349 51.0855 14.5939 52.0499 11.8615C53.0143 9.12912 55.9958 16.2815 57.0646 16.9244C58.1335 17.5674 45.002 16.9244 45.002 16.9244Z" fill="black"/>
<path d="M47.991 9.26579C48.6834 9.26579 49.2447 8.7045 49.2447 8.01211C49.2447 7.31972 48.6834 6.75842 47.991 6.75842C47.2986 6.75842 46.7373 7.31972 46.7373 8.01211C46.7373 8.7045 47.2986 9.26579 47.991 9.26579Z" fill="black"/>
<path d="M38.9663 24.6475H47.9188C49.3895 24.6475 50.5789 25.8369 50.5789 27.3076V36.445C50.5789 37.6906 49.5663 38.7032 48.3207 38.7032H38.6769C37.6483 38.7032 36.8125 37.8674 36.8125 36.8388V26.7932C36.8125 25.6119 37.7769 24.6475 38.9663 24.6475Z" fill="#F32E15"/>
<path d="M40.1799 26.2708H47.3483C48.4333 26.2708 49.3173 27.1548 49.3173 28.2397V35.1109C49.3173 36.1958 48.4333 37.0798 47.3483 37.0798H40.1799C39.0949 37.0798 38.2109 36.1958 38.2109 35.1109V28.2397C38.219 27.1548 39.0949 26.2708 40.1799 26.2708Z" fill="#F3D4C7"/>
<path d="M39.5449 35.7458C39.5449 35.7458 41.0236 34.6368 41.546 32.8608C42.0603 31.0847 42.438 33.6724 42.438 33.6724C42.438 33.6724 43.7721 34.1305 44.4391 32.2339C45.1061 30.3373 47.1795 35.2958 47.9189 35.7458C48.6502 36.1959 39.5449 35.7458 39.5449 35.7458Z" fill="black"/>
<path d="M41.6189 30.4337C42.0983 30.4337 42.4868 30.0452 42.4868 29.5658C42.4868 29.0865 42.0983 28.6979 41.6189 28.6979C41.1396 28.6979 40.751 29.0865 40.751 29.5658C40.751 30.0452 41.1396 30.4337 41.6189 30.4337Z" fill="black"/>
<path d="M68.4282 28.1674H84.6859C85.6583 28.1674 86.4539 28.955 86.4539 29.9354V46.619C86.4539 47.5914 85.6663 48.387 84.6859 48.387H68.4282C67.4558 48.387 66.6602 47.5995 66.6602 46.619V29.9354C66.6682 28.955 67.4558 28.1674 68.4282 28.1674Z" fill="#F32E15"/>
<path d="M70.9669 30.506H82.4992C83.6805 30.506 84.6449 31.4624 84.6449 32.6518V43.8867C84.6449 45.0761 83.6805 46.0404 82.4911 46.0404H68.6846V32.7884C68.6846 31.5347 69.7132 30.506 70.9669 30.506Z" fill="#F3D4C7"/>
<path d="M70.6055 44.1278C70.6055 44.1278 72.7351 42.5285 73.4745 39.981C74.2219 37.4254 74.7523 41.1543 74.7523 41.1543C74.7523 41.1543 76.6649 41.8133 77.6213 39.0889C78.5776 36.3646 81.5591 43.4929 82.6199 44.1358C83.6807 44.7787 70.6055 44.1278 70.6055 44.1278Z" fill="black"/>
<path d="M73.5799 36.4932C74.2722 36.4932 74.8335 35.9319 74.8335 35.2395C74.8335 34.5471 74.2722 33.9858 73.5799 33.9858C72.8875 33.9858 72.3262 34.5471 72.3262 35.2395C72.3262 35.9319 72.8875 36.4932 73.5799 36.4932Z" fill="black"/>
<path d="M52.5966 42.5446H78.8275C80.4106 42.5446 81.6965 43.8304 81.6965 45.4136V72.3356C81.6965 73.9188 80.4106 75.2046 78.8275 75.2046H52.5966C51.0134 75.2046 49.7276 73.9188 49.7276 72.3356V45.4136C49.7195 43.8224 51.0054 42.5446 52.5966 42.5446Z" fill="#F38800"/>
<path d="M55.1601 46.3217H76.32C77.6781 46.3217 78.7711 47.4227 78.7711 48.7728V68.3174C78.7711 70.0292 77.3888 71.4114 75.677 71.4114H55.377C54.0591 71.4114 52.9902 70.3426 52.9902 69.0246V48.4915C52.9902 47.2941 53.9626 46.3217 55.1601 46.3217Z" fill="#F3CE9E"/>
<path d="M56.084 68.3254C56.084 68.3254 59.5236 65.7458 60.721 61.6231C61.9265 57.5004 62.7864 63.5116 62.7864 63.5116C62.7864 63.5116 65.8804 64.5724 67.4234 60.1765C68.9664 55.7806 73.7802 67.2968 75.5 68.3254C77.2198 69.3541 56.084 68.3254 56.084 68.3254Z" fill="black"/>
<path d="M60.898 55.9895C62.012 55.9895 62.9151 55.0864 62.9151 53.9724C62.9151 52.8584 62.012 51.9553 60.898 51.9553C59.784 51.9553 58.8809 52.8584 58.8809 53.9724C58.8809 55.0864 59.784 55.9895 60.898 55.9895Z" fill="black"/>
<path d="M38.4917 11.8696H29.3623V21.1919H38.4917V11.8696Z" fill="black"/>
<path d="M37.6563 12.9545H30.2949V20.1149H37.6563V12.9545Z" fill="#F3D4C7"/>
<path d="M31.1787 19.2309C31.1787 19.2309 32.1591 18.4916 32.5047 17.3182C32.8503 16.1369 33.0914 17.8567 33.0914 17.8567C33.0914 17.8567 33.9754 18.1621 34.4174 16.9084C34.8594 15.6547 36.2336 18.9416 36.7238 19.2309C37.2141 19.5283 31.1787 19.2309 31.1787 19.2309Z" fill="black"/>
<path d="M32.5532 15.711C32.8728 15.711 33.1318 15.452 33.1318 15.1324C33.1318 14.8128 32.8728 14.5538 32.5532 14.5538C32.2337 14.5538 31.9746 14.8128 31.9746 15.1324C31.9746 15.452 32.2337 15.711 32.5532 15.711Z" fill="black"/>
<path d="M119.041 103.734L194.808 99.2335C197.139 99.0969 199.148 100.873 199.284 103.212L204.171 185.392L119.587 190.423L114.725 108.612C114.564 106.064 116.501 103.887 119.041 103.734Z" fill="black"/>
<path d="M125.237 109.906L191.377 105.293C193.82 105.124 195.917 107.005 196.006 109.456L198.682 180.65L126.643 183.64L122.344 113.201C122.239 111.497 123.533 110.018 125.237 109.906Z" fill="#F3D4C7"/>
<path d="M128.732 179.807C128.732 179.807 140.12 171.473 142.66 160.367C145.191 149.26 154.57 165.486 154.57 165.486C154.57 165.486 156.972 167.551 160.372 155.665C163.771 143.779 175.408 174.286 180.117 176.745C184.827 179.204 128.732 179.807 128.732 179.807Z" fill="black"/>
<path d="M141.784 136.474C144.74 136.474 147.136 134.078 147.136 131.122C147.136 128.166 144.74 125.77 141.784 125.77C138.828 125.77 136.432 128.166 136.432 131.122C136.432 134.078 138.828 136.474 141.784 136.474Z" fill="black"/>
<path d="M167.63 109.126H245.872C247.295 109.126 248.452 110.284 248.452 111.706V191.355C248.452 193.75 246.515 195.687 244.12 195.687H168.337C165.789 195.687 163.716 193.621 163.716 191.066V113.04C163.724 110.878 165.468 109.126 167.63 109.126Z" fill="#F35815"/>
<path d="M171.085 113.434L241.669 114.077C243.228 114.093 244.489 115.363 244.489 116.922V187.851C244.489 189.418 243.212 190.696 241.645 190.696L171.061 190.656C169.494 190.656 168.216 189.386 168.216 187.811V116.279C168.216 114.696 169.502 113.418 171.085 113.434Z" fill="#F3D4C7"/>
<path d="M170.458 187.393C170.458 187.393 182.071 180.064 185.261 169.134C188.452 158.197 198.69 172.759 198.69 172.759C198.69 172.759 206.55 167.535 210.648 155.874C214.747 144.213 235.232 182.619 239.788 185.352C244.337 188.076 170.458 187.393 170.458 187.393Z" fill="black"/>
<path d="M193.33 144.776C196.286 144.776 198.682 142.38 198.682 139.424C198.682 136.468 196.286 134.071 193.33 134.071C190.374 134.071 187.978 136.468 187.978 139.424C187.978 142.38 190.374 144.776 193.33 144.776Z" fill="black"/>
</svg>
