<svg width="265" height="259" viewBox="0 0 265 259" fill="none" xmlns="http://www.w3.org/2000/svg">
<path d="M264.472 64.1552V232.366C264.472 236.279 261.298 239.454 257.385 239.454H19.257C15.3348 239.454 12.1602 236.279 12.1602 232.366V64.1552C12.1602 60.233 15.3348 57.0583 19.257 57.0583H257.385C261.288 57.0676 264.472 60.2422 264.472 64.1552Z" fill="#F35815"/>
<path d="M264.472 64.1552V232.366C264.472 236.279 261.298 239.454 257.385 239.454H19.257C15.3348 239.454 12.1602 236.279 12.1602 232.366V64.1552C12.1602 60.233 15.3348 57.0583 19.257 57.0583H257.385C261.288 57.0676 264.472 60.2422 264.472 64.1552Z" fill="#F3D4C7"/>
<path opacity="0.1" d="M264.472 64.1552V77.2322H12.1602V64.1552C12.1602 60.233 15.3348 57.0583 19.257 57.0583H257.385C261.288 57.0676 264.472 60.2422 264.472 64.1552Z" fill="black"/>
<path opacity="0.4" d="M256.094 67.856C256.094 69.9139 254.423 71.5843 252.365 71.5843C250.307 71.5843 248.637 69.9139 248.637 67.856C248.637 65.798 250.307 64.1276 252.365 64.1276C254.423 64.1276 256.094 65.798 256.094 67.856Z" fill="#F35815"/>
<path opacity="0.4" d="M242.527 67.856C242.527 69.9139 240.857 71.5843 238.799 71.5843C236.741 71.5843 235.07 69.9139 235.07 67.856C235.07 65.798 236.741 64.1276 238.799 64.1276C240.857 64.1276 242.527 65.798 242.527 67.856Z" fill="#F35815"/>
<path opacity="0.4" d="M228.97 67.856C228.97 69.9139 227.3 71.5843 225.242 71.5843C223.184 71.5843 221.514 69.9139 221.514 67.856C221.514 65.798 223.184 64.1276 225.242 64.1276C227.3 64.1276 228.97 65.798 228.97 67.856Z" fill="#F35815"/>
<path d="M259.85 85.8518H16.6924V99.6302H259.85V85.8518Z" fill="white"/>
<path d="M259.84 103.949H16.7842V223.184H259.84V103.949Z" fill="white"/>
<path d="M140.503 136.951L198.93 133.481C200.73 133.37 202.271 134.745 202.382 136.545L206.147 199.918L140.919 203.794L137.172 140.707C137.061 138.751 138.547 137.071 140.503 136.951Z" fill="black"/>
<path d="M145.293 141.704L196.291 138.151C198.173 138.022 199.788 139.471 199.862 141.362L201.929 196.264L146.382 198.571L143.06 144.251C142.976 142.931 143.973 141.796 145.293 141.704Z" fill="#F3D4C7"/>
<path d="M147.987 195.618C147.987 195.618 156.773 189.195 158.72 180.63C160.677 172.066 167.903 184.58 167.903 184.58C167.903 184.58 169.758 186.168 172.379 177.013C175 167.849 183.979 191.373 187.606 193.265C191.242 195.156 147.987 195.618 147.987 195.618Z" fill="black"/>
<path d="M158.047 162.201C160.325 162.201 162.172 160.354 162.172 158.076C162.172 155.797 160.325 153.95 158.047 153.95C155.769 153.95 153.922 155.797 153.922 158.076C153.922 160.354 155.769 162.201 158.047 162.201Z" fill="black"/>
<path d="M206.045 2.00009L234.608 0.302012C235.485 0.24664 236.241 0.920332 236.297 1.79706L238.143 32.7777L206.257 34.6696L204.421 3.82737C204.366 2.87681 205.095 2.05546 206.045 2.00009Z" fill="black"/>
<path d="M208.389 4.31646L233.325 2.58147C234.248 2.51687 235.032 3.22748 235.069 4.15035L236.075 30.9874L208.915 32.1132L207.291 5.56234C207.254 4.91633 207.743 4.36261 208.389 4.31646Z" fill="#F3D4C7"/>
<path d="M209.709 30.6736C209.709 30.6736 214 27.5359 214.96 23.346C215.92 19.1562 219.454 25.2748 219.454 25.2748C219.454 25.2748 220.359 26.0501 221.642 21.5741C222.924 17.0982 227.308 28.5972 229.089 29.52C230.852 30.4521 209.709 30.6736 209.709 30.6736Z" fill="black"/>
<path d="M214.628 14.3388C215.744 14.3388 216.649 13.4339 216.649 12.3177C216.649 11.2015 215.744 10.2966 214.628 10.2966C213.511 10.2966 212.606 11.2015 212.606 12.3177C212.606 13.4339 213.511 14.3388 214.628 14.3388Z" fill="black"/>
<path d="M2.12823 111.895L30.691 110.197C31.5677 110.142 32.3245 110.815 32.3799 111.692L34.2256 142.673L2.34049 144.565L0.503982 113.723C0.439382 112.772 1.16845 111.951 2.12823 111.895Z" fill="black"/>
<path d="M4.46361 114.221L29.3995 112.486C30.3224 112.421 31.1068 113.132 31.1437 114.055L32.1497 140.892L4.98964 142.018L3.3654 115.467C3.33771 114.821 3.8176 114.267 4.46361 114.221Z" fill="#F3D4C7"/>
<path d="M5.7832 140.569C5.7832 140.569 10.0745 137.431 11.0343 133.241C11.9941 129.051 15.5287 135.17 15.5287 135.17C15.5287 135.17 16.4331 135.945 17.7159 131.469C18.9987 126.993 23.3823 138.492 25.1634 139.415C26.9353 140.347 5.7832 140.569 5.7832 140.569Z" fill="black"/>
<path d="M10.7017 124.243C11.818 124.243 12.7228 123.338 12.7228 122.222C12.7228 121.106 11.818 120.201 10.7017 120.201C9.58553 120.201 8.68066 121.106 8.68066 122.222C8.68066 123.338 9.58553 124.243 10.7017 124.243Z" fill="black"/>
<path d="M177.98 141.113H238.317C239.416 141.113 240.311 142.008 240.311 143.107V204.524C240.311 206.369 238.816 207.864 236.97 207.864H178.534C176.568 207.864 174.972 206.268 174.972 204.302V144.131C174.962 142.461 176.31 141.113 177.98 141.113Z" fill="#F35815"/>
<path d="M180.639 144.436L235.069 144.934C236.269 144.943 237.238 145.921 237.238 147.13V201.829C237.238 203.038 236.26 204.025 235.042 204.025L180.611 203.988C179.402 203.988 178.424 203.01 178.424 201.792V146.632C178.424 145.405 179.421 144.426 180.639 144.436Z" fill="#F3D4C7"/>
<path d="M180.158 201.46C180.158 201.46 189.11 195.812 191.574 187.377C194.038 178.942 201.929 190.173 201.929 190.173C201.929 190.173 207.992 186.14 211.148 177.151C214.314 168.163 230.104 197.777 233.62 199.882C237.127 201.995 180.158 201.46 180.158 201.46Z" fill="black"/>
<path d="M197.795 168.596C200.073 168.596 201.92 166.749 201.92 164.471C201.92 162.193 200.073 160.346 197.795 160.346C195.517 160.346 193.67 162.193 193.67 164.471C193.67 166.749 195.517 168.596 197.795 168.596Z" fill="black"/>
<path d="M76.1238 16.6737H166.057C167.691 16.6737 169.02 18.0026 169.02 19.6361V111.175C169.02 113.926 166.786 116.15 164.045 116.15H76.9452C74.0105 116.15 71.6387 113.769 71.6387 110.843V21.1681C71.6295 18.6856 73.6413 16.6737 76.1238 16.6737Z" fill="#F35815"/>
<path d="M80.0925 21.6294L161.213 22.3677C163.003 22.3862 164.452 23.8443 164.452 25.6347V107.161C164.452 108.97 162.985 110.428 161.185 110.428L80.0648 110.382C78.2652 110.382 76.7979 108.914 76.7979 107.115V24.8964C76.7979 23.0783 78.2744 21.611 80.0925 21.6294Z" fill="#F3D4C7"/>
<path d="M79.3721 106.626C79.3721 106.626 92.7167 98.1999 96.3805 85.6397C100.044 73.0702 111.82 89.8018 111.82 89.8018C111.82 89.8018 120.855 83.794 125.562 70.3939C130.268 56.9939 153.82 101.135 159.053 104.272C164.294 107.419 79.3721 106.626 79.3721 106.626Z" fill="black"/>
<path d="M105.664 57.6491C109.064 57.6491 111.82 54.8932 111.82 51.4935C111.82 48.0939 109.064 45.338 105.664 45.338C102.265 45.338 99.5088 48.0939 99.5088 51.4935C99.5088 54.8932 102.265 57.6491 105.664 57.6491Z" fill="black"/>
<path d="M58.4224 258.844C56.1798 258.844 54.3525 257.016 54.3525 254.774C54.3525 252.531 56.1798 250.704 58.4224 250.704H212.08C214.323 250.704 216.15 252.531 216.15 254.774C216.15 257.016 214.323 258.844 212.08 258.844H58.4224Z" fill="white"/>
<path d="M212.08 250.824C214.268 250.824 216.03 252.596 216.03 254.774C216.03 256.961 214.258 258.724 212.08 258.724H58.4228C56.2356 258.724 54.4729 256.952 54.4729 254.774C54.4729 252.587 56.2448 250.824 58.4228 250.824H212.08ZM212.08 250.593H58.4228C56.1156 250.593 54.2422 252.467 54.2422 254.774C54.2422 257.081 56.1156 258.954 58.4228 258.954H212.08C214.387 258.954 216.261 257.081 216.261 254.774C216.261 252.467 214.387 250.593 212.08 250.593Z" fill="#231F20"/>
<path d="M166.472 250.824H58.4225C56.2353 250.824 54.4727 252.596 54.4727 254.774C54.4727 256.961 56.2446 258.724 58.4225 258.724H166.481V250.824H166.472Z" fill="#F3D6CA" stroke="#231F20" stroke-width="0.14807" stroke-miterlimit="10"/>
<mask id="mask0_42_208" style="mask-type:luminance" maskUnits="userSpaceOnUse" x="54" y="250" width="113" height="9">
<path d="M166.472 250.824H58.4225C56.2353 250.824 54.4727 252.596 54.4727 254.774C54.4727 256.961 56.2446 258.724 58.4225 258.724H166.481V250.824H166.472Z" fill="white"/>
</mask>
<g mask="url(#mask0_42_208)">
<path d="M69.9052 243.674L45.6104 267.969L48.8601 271.219L73.1549 246.924L69.9052 243.674Z" fill="#F35815" stroke="#231F20" stroke-width="0.14807" stroke-miterlimit="10"/>
<path d="M81.9764 243.674L57.6816 267.969L60.9314 271.219L85.2262 246.924L81.9764 243.674Z" fill="#F35815" stroke="#231F20" stroke-width="0.14807" stroke-miterlimit="10"/>
<path d="M94.0543 243.668L69.7529 267.969L73.0027 271.219L97.304 246.918L94.0543 243.668Z" fill="#F35815" stroke="#231F20" stroke-width="0.14807" stroke-miterlimit="10"/>
<path d="M106.119 243.675L81.8242 267.97L85.074 271.22L109.369 246.925L106.119 243.675Z" fill="#F35815" stroke="#231F20" stroke-width="0.14807" stroke-miterlimit="10"/>
<path d="M118.19 243.675L93.8955 267.97L97.1453 271.22L121.44 246.925L118.19 243.675Z" fill="#F35815" stroke="#231F20" stroke-width="0.14807" stroke-miterlimit="10"/>
<path d="M130.262 243.676L105.967 267.971L109.217 271.221L133.511 246.926L130.262 243.676Z" fill="#F35815" stroke="#231F20" stroke-width="0.14807" stroke-miterlimit="10"/>
<path d="M142.335 243.672L118.04 267.967L121.29 271.216L145.585 246.922L142.335 243.672Z" fill="#F35815" stroke="#231F20" stroke-width="0.14807" stroke-miterlimit="10"/>
<path d="M154.406 243.672L130.111 267.967L133.361 271.217L157.656 246.922L154.406 243.672Z" fill="#F35815" stroke="#231F20" stroke-width="0.14807" stroke-miterlimit="10"/>
<path d="M166.483 243.666L142.182 267.968L145.431 271.217L169.733 246.916L166.483 243.666Z" fill="#F35815" stroke="#231F20" stroke-width="0.14807" stroke-miterlimit="10"/>
<path d="M178.554 243.666L154.259 267.961L157.509 271.211L181.803 246.916L178.554 243.666Z" fill="#F35815" stroke="#231F20" stroke-width="0.14807" stroke-miterlimit="10"/>
<path d="M190.625 243.667L166.33 267.962L169.58 271.212L193.875 246.917L190.625 243.667Z" fill="#F35815" stroke="#231F20" stroke-width="0.14807" stroke-miterlimit="10"/>
</g>
<path d="M166.472 250.824H58.4225C56.2353 250.824 54.4727 252.596 54.4727 254.774C54.4727 256.961 56.2446 258.724 58.4225 258.724H166.481V250.824H166.472Z" stroke="#231F20" stroke-width="0.14807" stroke-miterlimit="10"/>
</svg>
