<svg width="250" height="196" viewBox="0 0 250 196" fill="none" xmlns="http://www.w3.org/2000/svg">
<path d="M222.168 6.74072H0V161.238H222.168V6.74072Z" fill="#F35815"/>
<path d="M218.512 0.769531H3.65527V167.227H218.512V0.769531Z" fill="white"/>
<path d="M110.668 16.3318H63.8209C63.6168 16.3318 63.4482 16.1632 63.4482 15.9591V12.2682C63.4482 12.0641 63.6168 11.8955 63.8209 11.8955H110.668C110.872 11.8955 111.04 12.0641 111.04 12.2682V15.9591C111.032 16.1721 110.872 16.3318 110.668 16.3318Z" fill="#F35815"/>
<path d="M139.263 16.3318H116.31C116.106 16.3318 115.938 16.1632 115.938 15.9591V12.2682C115.938 12.0641 116.106 11.8955 116.31 11.8955H139.263C139.467 11.8955 139.636 12.0641 139.636 12.2682V15.9591C139.636 16.1721 139.467 16.3318 139.263 16.3318Z" fill="#F35815"/>
<path d="M185.41 16.3318H144.419C144.214 16.3318 144.046 16.1632 144.046 15.9591V12.2682C144.046 12.0641 144.214 11.8955 144.419 11.8955H185.41C185.614 11.8955 185.782 12.0641 185.782 12.2682V15.9591C185.773 16.1721 185.614 16.3318 185.41 16.3318Z" fill="#F35815"/>
<path d="M187.662 25.843H63.8111C63.6071 25.843 63.4385 25.6744 63.4385 25.4703V21.7794C63.4385 21.5753 63.6071 21.4067 63.8111 21.4067H187.662C187.867 21.4067 188.035 21.5753 188.035 21.7794V25.4703C188.035 25.6833 187.867 25.843 187.662 25.843Z" fill="#F35815"/>
<path d="M92.842 35.3545H63.8111C63.6071 35.3545 63.4385 35.1859 63.4385 34.9818V31.2909C63.4385 31.0868 63.6071 30.9182 63.8111 30.9182H92.842C93.046 30.9182 93.2146 31.0868 93.2146 31.2909V34.9818C93.2146 35.1948 93.046 35.3545 92.842 35.3545Z" fill="#F35815"/>
<path d="M185.152 35.3545H99.7808C99.5768 35.3545 99.4082 35.1859 99.4082 34.9818V31.2909C99.4082 31.0868 99.5768 30.9182 99.7808 30.9182H185.152C185.356 30.9182 185.525 31.0868 185.525 31.2909V34.9818C185.525 35.1948 185.356 35.3545 185.152 35.3545Z" fill="#F35815"/>
<path d="M145.527 44.8747H63.8111C63.6071 44.8747 63.4385 44.7062 63.4385 44.5021V40.8111C63.4385 40.6071 63.6071 40.4385 63.8111 40.4385H145.527C145.731 40.4385 145.9 40.6071 145.9 40.8111V44.5021C145.9 44.7062 145.731 44.8747 145.527 44.8747Z" fill="#F35815"/>
<path d="M186.358 44.8747H150.939C150.735 44.8747 150.566 44.7062 150.566 44.5021V40.8111C150.566 40.6071 150.735 40.4385 150.939 40.4385H186.358C186.562 40.4385 186.731 40.6071 186.731 40.8111V44.5021C186.731 44.7062 186.562 44.8747 186.358 44.8747Z" fill="#F35815"/>
<path d="M115.627 54.386H63.8111C63.6071 54.386 63.4385 54.2174 63.4385 54.0133V50.3224C63.4385 50.1183 63.6071 49.9497 63.8111 49.9497H115.627C115.831 49.9497 115.999 50.1183 115.999 50.3224V54.0133C115.999 54.2174 115.831 54.386 115.627 54.386Z" fill="#F35815"/>
<path d="M161.063 54.386H123.115C122.911 54.386 122.742 54.2174 122.742 54.0133V50.3224C122.742 50.1183 122.911 49.9497 123.115 49.9497H161.063C161.267 49.9497 161.435 50.1183 161.435 50.3224V54.0133C161.435 54.2174 161.267 54.386 161.063 54.386Z" fill="#F35815"/>
<path d="M110.668 65.5654H63.8209C63.6168 65.5654 63.4482 65.3968 63.4482 65.1928V61.5018C63.4482 61.2977 63.6168 61.1292 63.8209 61.1292H110.668C110.872 61.1292 111.04 61.2977 111.04 61.5018V65.1928C111.032 65.3968 110.872 65.5654 110.668 65.5654Z" fill="#F35815"/>
<path d="M139.263 65.5654H116.31C116.106 65.5654 115.938 65.3968 115.938 65.1928V61.5018C115.938 61.2977 116.106 61.1292 116.31 61.1292H139.263C139.467 61.1292 139.636 61.2977 139.636 61.5018V65.1928C139.636 65.3968 139.467 65.5654 139.263 65.5654Z" fill="#F35815"/>
<path d="M185.41 65.5654H144.419C144.214 65.5654 144.046 65.3968 144.046 65.1928V61.5018C144.046 61.2977 144.214 61.1292 144.419 61.1292H185.41C185.614 61.1292 185.782 61.2977 185.782 61.5018V65.1928C185.773 65.3968 185.614 65.5654 185.41 65.5654Z" fill="#F35815"/>
<path d="M131.056 75.0766H63.8111C63.6071 75.0766 63.4385 74.9081 63.4385 74.704V71.013C63.4385 70.809 63.6071 70.6404 63.8111 70.6404H131.056C131.26 70.6404 131.429 70.809 131.429 71.013V74.704C131.429 74.9081 131.26 75.0766 131.056 75.0766Z" fill="#F35815"/>
<mask id="mask0_42_334" style="mask-type:luminance" maskUnits="userSpaceOnUse" x="12" y="11" width="39" height="40">
<path d="M45.1864 44.8907C52.7331 37.3441 52.7331 25.1086 45.1864 17.562C37.6398 10.0153 25.4043 10.0153 17.8577 17.562C10.3111 25.1086 10.3111 37.3441 17.8577 44.8907C25.4043 52.4373 37.6398 52.4373 45.1864 44.8907Z" fill="white"/>
</mask>
<g mask="url(#mask0_42_334)">
<path d="M67.7859 0.263672H-1.2334V64.891H67.7859V0.263672Z" fill="white"/>
</g>
<mask id="mask1_42_334" style="mask-type:luminance" maskUnits="userSpaceOnUse" x="12" y="11" width="39" height="40">
<path d="M45.1864 44.8907C52.7331 37.3441 52.7331 25.1086 45.1864 17.562C37.6398 10.0153 25.4043 10.0153 17.8577 17.562C10.3111 25.1086 10.3111 37.3441 17.8577 44.8907C25.4043 52.4373 37.6398 52.4373 45.1864 44.8907Z" fill="white"/>
</mask>
<g mask="url(#mask1_42_334)">
<path d="M24.9238 23.2169C24.6931 24.2195 24.5866 25.2842 24.4802 26.3046C23.9656 31.4063 23.0251 36.5789 20.5674 41.0862C22.475 41.3701 23.8768 41.6806 25.7844 41.0684C27.3992 40.5449 28.8721 39.5246 29.7859 38.0695C30.3271 37.2 30.6643 36.224 30.9393 35.2392C31.4894 33.305 32.0307 31.4329 31.1523 29.5075C30.9482 29.0728 30.6022 28.7179 30.3538 28.3097C29.2713 26.5352 29.5286 24.4768 29.5907 22.5426C29.6173 21.7618 29.573 20.9367 29.156 20.2801C28.8277 19.7566 28.4817 19.1888 27.763 19.2775C27.346 19.3308 26.9733 19.5881 26.6628 19.872C25.7223 20.7504 25.2255 21.9393 24.9238 23.2169Z" fill="black"/>
<path d="M43.2362 40.9088C39.8558 39.6312 36.2092 39.2142 32.598 38.9125C30.7526 38.7617 27.8335 38.9037 25.9969 39.0811C21.8623 39.4804 19.0497 41.1484 15.8379 43.7835C14.8708 44.5732 13.9392 45.4604 13.3536 46.5606C12.768 47.6697 12.5728 49.0361 13.1051 50.1717C13.7883 51.618 15.412 52.3189 16.9292 52.8157C26.5825 55.9832 37.3182 55.7792 46.8384 52.2302C47.9475 51.822 49.0565 51.3518 49.9527 50.5887C54.4333 46.7558 46.4214 42.1155 43.2362 40.9088Z" fill="#F3D4C7"/>
<path d="M36.0142 42.1865C35.3044 42.71 34.6124 43.2601 33.938 43.819C32.9709 44.6264 32.0659 45.5935 30.6996 45.3628C30.0341 45.2475 29.4308 44.9281 28.8541 44.5821C26.7691 43.3222 24.7639 41.7251 23.9121 39.4538C24.755 39.1255 26.8489 38.9658 26.9554 37.9188C27.0707 36.7476 27.1417 35.5676 27.1506 34.3876C27.1594 33.8641 27.1861 33.7221 26.8134 33.4116C24.9679 31.85 24.3824 30.0045 24.409 27.5823C24.4356 25.3731 24.6219 23.1727 24.9591 20.9901C27.3192 20.7239 30.5576 19.8899 32.5184 21.4603C33.9913 22.6315 35.0915 24.2197 35.7303 25.9675C36.4667 27.955 36.0231 28.0171 35.5972 30.0578C35.2157 31.9121 34.9939 33.8907 35.2689 35.7717C35.402 36.6944 35.6682 37.6615 36.2804 38.3979C37.0789 39.365 38.5784 39.5957 39.714 39.9595C39.0042 40.1103 38.3832 40.5185 37.7798 40.9177C37.1943 41.3347 36.5998 41.7517 36.0142 42.1865Z" fill="white"/>
<path d="M40.2105 41.4323C38.436 41.45 36.6704 41.3613 34.9048 41.175C35.4992 36.8186 34.541 32.5952 34.053 28.301C33.9998 27.8485 33.9998 27.1387 33.7957 26.6063C33.707 26.3934 33.5739 26.2425 33.4585 26.0473C33.3521 25.8699 33.3876 25.6303 33.3964 25.4174C33.3964 25.3996 33.3964 25.373 33.3787 25.3642C33.3609 25.3553 33.3432 25.3553 33.3254 25.3642C33.0681 25.444 32.7487 25.6215 32.6156 25.8699C32.5802 25.932 32.3583 26.4821 32.3938 26.491C32.0922 26.3579 31.8437 26.1183 31.7018 25.8166C31.5864 25.5771 31.5421 25.302 31.5066 25.0359C31.48 24.7697 31.5155 24.4503 31.3824 24.2107C31.1162 23.7139 30.4951 23.776 29.9273 23.7139C30.2112 23.0573 30.2822 22.3031 30.1313 21.6022C29.8563 21.9926 29.6345 22.4274 29.4925 22.8887C29.4127 23.1283 29.3506 23.3945 29.182 23.5808C28.7117 24.0865 26.9017 23.6695 26.2895 23.6429C25.9879 23.6251 22.8293 23.3412 22.8115 23.3945C23.3705 21.6909 24.0892 19.9164 25.5354 18.8517C27.1502 17.6539 29.3062 17.5918 31.3114 17.5741C33.219 17.5563 35.517 18.204 37.2027 19.0735C40.2194 20.6351 41.2575 24.1752 42.1536 27.183C42.402 28.0348 42.4375 28.922 42.5529 29.8004C42.7658 31.433 43.2715 33.0211 43.7773 34.5916C44.3895 36.508 45.0993 38.5487 46.6963 39.782C44.7355 41.2459 42.5706 41.4145 40.2105 41.4323Z" fill="black"/>
<path d="M33.8672 29.3214C33.8761 29.3214 33.8761 29.3214 33.885 29.3214C35.1448 29.3036 36.1297 28.2478 36.245 27.1033C36.3604 25.9321 35.2868 25.0093 34.1068 25.036C33.4857 25.0448 33.0332 25.3288 32.7227 25.7546" fill="white"/>
<path d="M27.2031 34.7778C27.2031 34.485 27.1765 34.1922 27.0701 33.9171C27.0168 33.7131 26.937 33.5179 26.7861 33.3759V33.3582C27.9928 34.2454 29.998 33.9704 30.3706 33.5001C29.6253 34.7511 28.4364 35.248 27.1588 35.4609C27.1854 35.2391 27.2031 35.0084 27.2031 34.7778Z" fill="black"/>
<path d="M28.7919 29.7028C28.5967 30.4393 27.7893 30.874 27.0263 30.8563C26.006 30.8385 25.5357 30.3417 25.2695 29.552L28.7919 29.7028Z" fill="#EE7273"/>
</g>
<path d="M160.132 178.592C160.265 179.196 160.123 179.843 159.821 180.384C159.528 180.908 159.093 181.352 158.872 181.911C158.623 182.558 158.685 183.277 158.614 183.969C158.499 185.096 158.011 186.143 157.532 187.163C157.94 186.56 157.408 184.058 157.381 183.286C157.328 181.964 157.266 180.633 157.221 179.311C157.195 178.512 157.079 177.669 157.931 177.297C158.907 176.88 159.919 177.652 160.132 178.592Z" fill="black"/>
<path d="M230.996 173.686H239.895C240.392 173.686 240.791 174.085 240.791 174.582V183.481C240.791 183.978 240.392 184.377 239.895 184.377H230.996C230.499 184.377 230.1 183.978 230.1 183.481V174.582C230.1 174.094 230.499 173.686 230.996 173.686Z" fill="#F3D4C7"/>
<path d="M245.289 186.604C245.289 188.947 247.188 190.845 249.53 190.845C247.188 190.845 245.289 192.744 245.289 195.086C245.289 192.744 243.39 190.845 241.048 190.845C243.39 190.845 245.289 188.947 245.289 186.604Z" fill="#F3D4C7"/>
<path d="M239.789 20.5464H246.86C247.251 20.5464 247.57 20.8658 247.57 21.2562V28.3276C247.57 28.718 247.251 29.0374 246.86 29.0374H239.789C239.399 29.0374 239.079 28.718 239.079 28.3276V21.2562C239.079 20.8658 239.399 20.5464 239.789 20.5464Z" fill="#F3D4C7"/>
<path d="M204.298 53.0376H213.818C214.351 53.0376 214.776 53.4635 214.776 53.9958V63.516C214.776 64.0484 214.351 64.4743 213.818 64.4743H204.298C203.766 64.4743 203.34 64.0484 203.34 63.516V53.9958C203.34 53.4724 203.775 53.0376 204.298 53.0376Z" fill="#F3D4C7"/>
<path d="M195.133 38.4333H204.033C204.529 38.4333 204.929 38.8326 204.929 39.3295V48.2286C204.929 48.7255 204.529 49.1247 204.033 49.1247H195.133C194.637 49.1247 194.237 48.7255 194.237 48.2286V39.3295C194.237 38.8326 194.645 38.4333 195.133 38.4333Z" fill="#F3D4C7"/>
<path d="M191.468 70.9333C191.468 73.7193 193.731 75.9818 196.517 75.9818C193.731 75.9818 191.468 78.2443 191.468 81.0303C191.468 78.2443 189.206 75.9818 186.42 75.9818C189.206 75.9907 191.468 73.7282 191.468 70.9333Z" fill="#F3D4C7"/>
<path d="M36.7768 106.122L67.3604 104.303C68.3008 104.25 69.1082 104.968 69.1704 105.909L71.14 139.074L36.9986 141.106L35.0289 108.083C34.9757 107.062 35.7565 106.175 36.7768 106.122Z" fill="black"/>
<path d="M40.6895 136.821C40.6895 136.821 45.2854 133.458 46.3058 128.977C47.3261 124.497 51.1147 131.045 51.1147 131.045C51.1147 131.045 52.0818 131.879 53.457 127.079C54.8322 122.287 59.5258 134.594 61.4245 135.587C63.3321 136.581 40.6895 136.821 40.6895 136.821Z" fill="black"/>
<path d="M45.9597 119.324C47.1505 119.324 48.1158 118.359 48.1158 117.168C48.1158 115.977 47.1505 115.012 45.9597 115.012C44.769 115.012 43.8037 115.977 43.8037 117.168C43.8037 118.359 44.769 119.324 45.9597 119.324Z" fill="black"/>
<path d="M56.3849 108.295H87.9621C88.5389 108.295 89.0002 108.766 89.0002 109.333V141.479C89.0002 142.446 88.2194 143.226 87.2523 143.226H56.6777C55.6485 143.226 54.8145 142.392 54.8145 141.363V109.875C54.8145 108.996 55.5154 108.295 56.3849 108.295Z" fill="#F35815"/>
<path d="M57.7775 110.035L86.2671 110.292C86.897 110.301 87.4028 110.806 87.4028 111.436V140.068C87.4028 140.698 86.8882 141.213 86.2582 141.213L57.7686 141.195C57.1386 141.195 56.624 140.68 56.624 140.05V111.179C56.624 110.54 57.1475 110.026 57.7775 110.035Z" fill="#F3D4C7"/>
<path d="M57.5293 139.882C57.5293 139.882 62.214 136.927 63.5005 132.509C64.787 128.09 68.9216 133.973 68.9216 133.973C68.9216 133.973 72.0891 131.861 73.7482 127.158C75.4074 122.456 83.6677 137.956 85.5132 139.056C87.3587 140.157 57.5293 139.882 57.5293 139.882Z" fill="black"/>
<path d="M66.7654 122.678C67.9561 122.678 68.9214 121.712 68.9214 120.522C68.9214 119.331 67.9561 118.366 66.7654 118.366C65.5747 118.366 64.6094 119.331 64.6094 120.522C64.6094 121.712 65.5747 122.678 66.7654 122.678Z" fill="black"/>
</svg>
